<?xml version="1.0" encoding="iso-8859-1"?>
<!-- Generator: Adobe Illustrator 19.0.0, SVG Export Plug-In . SVG Version: 6.00 Build 0)  -->
<svg version="1.1" id="Capa_1" xmlns="http://www.w3.org/2000/svg" xmlns:xlink="http://www.w3.org/1999/xlink" x="0px" y="0px"
	 viewBox="0 0 512.001 512.001" style="enable-background:new 0 0 512.001 512.001;" xml:space="preserve">
<path style="fill:#E6E9ED;" d="M328.001,219.833v220.168h-304V219.833l152-115.832L328.001,219.833z"/>
<path style="fill:#CCD1D9;" d="M344.001,232.001h144v208h-160V219.833L344.001,232.001z"/>
<rect x="456.001" y="232.001" style="fill:#AAB2BD;" width="32" height="208"/>
<rect x="376.001" y="304.001" style="fill:#E6E9ED;" width="64" height="24"/>
<g>
	<rect x="376.001" y="328.001" style="fill:#5D9CEC;" width="64" height="40"/>
	<circle style="fill:#5D9CEC;" cx="176.001" cy="224.001" r="32"/>
</g>
<rect x="56.001" y="304.001" style="fill:#F5F7FA;" width="64" height="24"/>
<rect x="56.001" y="328.001" style="fill:#5D9CEC;" width="64" height="40"/>
<rect x="152.001" y="344.001" style="fill:#ED5565;" width="48" height="96"/>
<rect x="232.001" y="328.001" style="fill:#5D9CEC;" width="64" height="40"/>
<rect x="232.001" y="304.001" style="fill:#F5F7FA;" width="64" height="24"/>
<polygon style="fill:#DA4453;" points="440.001,104.001 504.001,208.001 354.489,208.001 218.001,104.001 "/>
<polygon style="fill:#D3374E;" points="440.001,104.001 408.001,104.001 472.001,208.001 504.001,208.001 "/>
<polygon style="fill:#ED5565;" points="354.489,208.001 504.001,208.001 504.001,232.001 488.001,232.001 344.001,232.001 
	328.001,219.833 176.001,104.001 24.001,219.833 8.001,232.001 8.001,200.001 176.001,72.001 218.001,104.001 "/>
<rect x="472.001" y="208.001" style="fill:#DA4453;" width="32" height="24"/>
<path d="M8.009,208.001c-2.416,0-4.8-1.088-6.376-3.152c-2.672-3.512-1.992-8.536,1.512-11.216l168-128
	c3.528-2.68,8.528-1.984,11.216,1.512c2.672,3.512,1.992,8.536-1.512,11.216l-168,128C11.401,207.473,9.697,208.001,8.009,208.001z"
	/>
<path d="M8.009,240.001c-2.416,0-4.8-1.088-6.376-3.152c-2.672-3.512-1.992-8.536,1.512-11.216l168-128
	c3.528-2.68,8.528-1.992,11.216,1.512c2.672,3.512,1.992,8.536-1.512,11.216l-168,128C11.401,239.473,9.697,240.001,8.009,240.001z"
	/>
<path d="M354.497,216.001c-1.688,0-3.392-0.528-4.84-1.632l-178.504-136c-3.504-2.68-4.184-7.704-1.512-11.216
	c2.68-3.504,7.688-4.192,11.216-1.512l178.504,136c3.504,2.68,4.184,7.704,1.512,11.216
	C359.289,214.913,356.905,216.001,354.497,216.001z"/>
<path d="M343.993,240.001c-1.688,0-3.392-0.528-4.84-1.632l-168-128c-3.504-2.68-4.184-7.704-1.512-11.216
	c2.68-3.504,7.688-4.192,11.216-1.512l168,128c3.504,2.68,4.184,7.704,1.512,11.216
	C348.793,238.913,346.409,240.001,343.993,240.001z"/>
<path d="M504.001,216.001H354.505c-4.424,0-8-3.576-8-8s3.576-8,8-8h149.496c4.424,0,8,3.576,8,8S508.425,216.001,504.001,216.001z"
	/>
<path d="M8.001,240.001c-4.424,0-8-3.576-8-8v-32c0-4.424,3.576-8,8-8s8,3.576,8,8v32C16.001,236.425,12.425,240.001,8.001,240.001z
	"/>
<path d="M504.001,240.001h-160c-4.424,0-8-3.576-8-8s3.576-8,8-8h160c4.424,0,8,3.576,8,8S508.425,240.001,504.001,240.001z"/>
<path d="M504.001,240.001c-4.424,0-8-3.576-8-8v-24c0-4.424,3.576-8,8-8s8,3.576,8,8v24
	C512.001,236.425,508.425,240.001,504.001,240.001z"/>
<path d="M24.001,448.001c-4.424,0-8-3.576-8-8V219.817c0-4.424,3.576-8,8-8s8,3.576,8,8v220.184
	C32.001,444.425,28.425,448.001,24.001,448.001z"/>
<path d="M328.001,448.001c-4.424,0-8-3.576-8-8V219.817c0-4.424,3.576-8,8-8s8,3.576,8,8v220.184
	C336.001,444.425,332.425,448.001,328.001,448.001z"/>
<path d="M488.001,448.001c-4.424,0-8-3.576-8-8v-208c0-4.424,3.576-8,8-8s8,3.576,8,8v208
	C496.001,444.425,492.425,448.001,488.001,448.001z"/>
<path d="M504.009,216.001c-2.688,0-5.312-1.352-6.824-3.808l-64-104c-2.312-3.768-1.144-8.696,2.616-11.008
	c3.776-2.32,8.696-1.152,11.008,2.616l64,104c2.312,3.768,1.144,8.696-2.616,11.008
	C506.881,215.617,505.441,216.001,504.009,216.001z"/>
<path d="M440.001,112.001h-222c-4.424,0-8-3.576-8-8s3.576-8,8-8h222c4.424,0,8,3.576,8,8S444.425,112.001,440.001,112.001z"/>
<path d="M176.001,264.001c-22.056,0-40-17.944-40-40s17.944-40,40-40s40,17.944,40,40S198.057,264.001,176.001,264.001z
	 M176.001,200.001c-13.232,0-24,10.768-24,24s10.768,24,24,24s24-10.768,24-24S189.233,200.001,176.001,200.001z"/>
<path d="M152.001,448.001c-4.424,0-8-3.576-8-8v-96c0-4.424,3.576-8,8-8s8,3.576,8,8v96
	C160.001,444.425,156.425,448.001,152.001,448.001z"/>
<path d="M200.001,352.001h-48c-4.424,0-8-3.576-8-8s3.576-8,8-8h48c4.424,0,8,3.576,8,8S204.425,352.001,200.001,352.001z"/>
<path d="M200.001,448.001c-4.424,0-8-3.576-8-8v-96c0-4.424,3.576-8,8-8s8,3.576,8,8v96
	C208.001,444.425,204.425,448.001,200.001,448.001z"/>
<path d="M120.001,376.001h-64c-4.424,0-8-3.576-8-8v-64c0-4.424,3.576-8,8-8h64c4.424,0,8,3.576,8,8v64
	C128.001,372.425,124.425,376.001,120.001,376.001z M64.001,360.001h48v-48h-48V360.001z"/>
<path d="M296.001,376.001h-64c-4.424,0-8-3.576-8-8v-64c0-4.424,3.576-8,8-8h64c4.424,0,8,3.576,8,8v64
	C304.001,372.425,300.425,376.001,296.001,376.001z M240.001,360.001h48v-48h-48V360.001z"/>
<path d="M440.001,376.001h-64c-4.424,0-8-3.576-8-8v-64c0-4.424,3.576-8,8-8h64c4.424,0,8,3.576,8,8v64
	C448.001,372.425,444.425,376.001,440.001,376.001z M384.001,360.001h48v-48h-48V360.001z"/>
<path d="M176.001,264.001c-4.424,0-8-3.576-8-8v-64c0-4.424,3.576-8,8-8s8,3.576,8,8v64
	C184.001,260.425,180.425,264.001,176.001,264.001z"/>
<path d="M208.001,232.001h-64c-4.424,0-8-3.576-8-8s3.576-8,8-8h64c4.424,0,8,3.576,8,8S212.425,232.001,208.001,232.001z"/>
<path d="M504.001,448.001h-496c-4.424,0-8-3.576-8-8s3.576-8,8-8h496c4.424,0,8,3.576,8,8S508.425,448.001,504.001,448.001z"/>
<path d="M447.393,176.001h-97.392c-4.424,0-8-3.576-8-8s3.576-8,8-8h97.392c4.424,0,8,3.576,8,8S451.817,176.001,447.393,176.001z"
	/>
<path d="M427.697,144.001H308.001c-4.424,0-8-3.576-8-8s3.576-8,8-8h119.696c4.424,0,8,3.576,8,8S432.121,144.001,427.697,144.001z"
	/>
<path d="M120.001,336.001h-64c-4.424,0-8-3.576-8-8s3.576-8,8-8h64c4.424,0,8,3.576,8,8S124.425,336.001,120.001,336.001z"/>
<path d="M440.001,336.001h-64c-4.424,0-8-3.576-8-8s3.576-8,8-8h64c4.424,0,8,3.576,8,8S444.425,336.001,440.001,336.001z"/>
<path d="M296.001,336.001h-64c-4.424,0-8-3.576-8-8s3.576-8,8-8h64c4.424,0,8,3.576,8,8S300.425,336.001,296.001,336.001z"/>
<g>
</g>
<g>
</g>
<g>
</g>
<g>
</g>
<g>
</g>
<g>
</g>
<g>
</g>
<g>
</g>
<g>
</g>
<g>
</g>
<g>
</g>
<g>
</g>
<g>
</g>
<g>
</g>
<g>
</g>
</svg>
