<?xml version="1.0" encoding="iso-8859-1"?>
<!-- Generator: Adobe Illustrator 19.0.0, SVG Export Plug-In . SVG Version: 6.00 Build 0)  -->
<svg version="1.1" id="Capa_1" xmlns="http://www.w3.org/2000/svg" xmlns:xlink="http://www.w3.org/1999/xlink" x="0px" y="0px"
	 viewBox="0 0 511.968 511.968" style="enable-background:new 0 0 511.968 511.968;" xml:space="preserve">
<polygon style="fill:#E6E9ED;" points="256.001,348.728 163.999,292.724 163.999,316.73 185.7,384.914 255.993,356.727 
	326.293,384.914 347.995,316.73 347.995,292.724 "/>
<g>
	<path style="fill:#FFCE54;" d="M382.696,75.995c20.483,45.6,13.28,95.994,13.28,95.994s-3.117-45.759-31.756-63.996L382.696,75.995
		z"/>
	<path style="fill:#FFCE54;" d="M382.696,75.995l-18.476,31.998c-72.082-45.836-131.515,77.757-243.024,44.799
		c-4.484-1.36-9.046-2.961-13.679-4.801c0,0,8.476-143.991,148.467-143.991C330.137,4,365.822,38.318,382.696,75.995z"/>
</g>
<g style="opacity:0.2;">
	<path d="M382.696,75.995C365.822,38.318,330.137,4,255.985,4c-2.609,0-5.078,0.148-7.601,0.246
		c68.41,2.527,102.095,35.541,118.313,71.749c7.147,15.909,10.875,32.361,12.766,47.095c14.546,20.925,16.514,48.899,16.514,48.899
		S403.179,121.594,382.696,75.995z"/>
</g>
<g style="opacity:0.5;">
	<path style="fill:#FFFFFF;" d="M123.142,153.349c0,0,8.632-143.936,141.241-149.104c-2.773-0.102-5.507-0.246-8.397-0.246
		c-139.991,0-148.467,143.991-148.467,143.991C112.15,149.831,123.142,153.349,123.142,153.349z"/>
</g>
<g style="opacity:0.2;">
	<path d="M255.985,355.977c27.295,0,63.316-22.248,92.01-56.168v-7.085l-91.994,56.004l-92.002-56.004v7.21
		C192.684,333.823,228.706,355.977,255.985,355.977z"/>
</g>
<path style="fill:#EAC6BB;" d="M395.976,171.989l-0.883,15.999c-9.116,85.197-88.955,159.99-139.108,159.99
	c-53.278,0-139.991-84.393-139.991-175.989v-20.873c117.243,36.622,176.145-88.959,248.227-43.123
	C392.859,126.23,395.976,171.989,395.976,171.989z"/>
<g style="opacity:0.2;">
	<path d="M364.22,107.993c-14.179-9.015-27.842-11.335-41.544-9.628c8.405,1.137,16.881,4.116,25.546,9.628
		c28.639,18.237,31.755,63.996,31.755,63.996l-0.883,15.999c-8.663,80.964-81.151,152.397-131.382,159.303
		c2.828,0.422,5.602,0.688,8.273,0.688c50.153,0,129.992-74.793,139.108-159.99l0.883-15.999
		C395.976,171.989,392.859,126.23,364.22,107.993z"/>
</g>
<g style="opacity:0.5;">
	<path style="fill:#FFFFFF;" d="M131.992,171.989v-16.882c-5.226-1.035-10.53-2.28-15.999-3.991v20.873
		c0,91.597,86.713,175.989,139.991,175.989c2.492,0,5.102-0.327,7.727-0.688C210.206,339.44,131.992,258.991,131.992,171.989z"/>
</g>
<g>
	<path style="fill:#5D9CEC;" d="M499.97,427.973c0,31.997,0,79.995,0,79.995H303.982l11.437-15.999l40.56-55.997l-7.999-23.998
		l39.998-55.997l-17.164-17.155c18.078,7.922,69.48,28.835,81.16,33.154C483.971,383.898,499.97,395.975,499.97,427.973z"/>
	<polygon style="fill:#5D9CEC;" points="303.982,507.968 286.819,507.968 326.543,383.336 347.979,315.98 387.977,355.977 
		347.979,411.974 355.978,435.972 	"/>
</g>
<g style="opacity:0.2;">
	<polygon style="fill:#FFFFFF;" points="303.982,507.968 286.819,507.968 326.543,383.336 347.979,315.98 387.977,355.977 
		347.979,411.974 355.978,435.972 	"/>
</g>
<g>
	<path style="fill:#5D9CEC;" d="M12,427.973c0,31.997,0,79.995,0,79.995h195.988l-11.437-15.999l-40.561-55.997l8-23.998
		l-39.998-55.997l17.163-17.155c-18.077,7.922-69.48,28.835-81.159,33.154C27.999,383.898,12,395.975,12,427.973z"/>
	<polygon style="fill:#5D9CEC;" points="207.988,507.968 225.151,507.968 185.427,383.336 163.991,315.98 123.993,355.977 
		163.991,411.974 155.991,435.972 	"/>
</g>
<g style="opacity:0.2;">
	<polygon style="fill:#FFFFFF;" points="207.988,507.968 225.151,507.968 185.427,383.336 163.991,315.98 123.993,355.977 
		163.991,411.974 155.991,435.972 	"/>
</g>
<g style="opacity:0.2;">
	<path d="M155.991,435.972l8-23.998l-39.998-55.997l17.163-17.155c-3.547,1.548-8.39,3.609-13.944,5.938l-11.218,11.217
		l39.997,55.997l-8,23.998l51.997,71.996h8l-11.437-15.999L155.991,435.972z"/>
</g>
<g style="opacity:0.3;">
	<path style="fill:#FFFFFF;" d="M115.994,355.977l11.218-11.217c-22.78,9.546-57.825,23.748-67.214,27.216
		c-31.999,11.922-47.997,23.999-47.997,55.997c0,31.997,0,79.995,0,79.995H28c0-16.827,0-43.63,0-63.996
		c0-31.998,16-44.075,47.997-55.996c7.094-2.625,28.819-11.359,48.857-19.601L115.994,355.977z"/>
</g>
<g style="opacity:0.2;">
	<path d="M355.978,435.972l-7.999-23.998l39.998-55.997l-17.164-17.155c3.548,1.548,8.391,3.609,13.945,5.938l11.218,11.217
		l-39.998,55.997l8,23.998l-51.996,71.996h-8l11.437-15.999L355.978,435.972z"/>
</g>
<g style="opacity:0.5;">
	<path style="opacity:0.3;enable-background:new    ;" d="M395.976,355.977l-11.218-11.217
		c22.779,9.546,57.824,23.748,67.215,27.216c31.998,11.922,47.997,23.999,47.997,55.997c0,31.997,0,79.995,0,79.995h-15.999
		c0-16.827,0-43.63,0-63.996c0-31.998-15.999-44.075-47.998-55.996c-7.093-2.625-28.818-11.359-48.855-19.601L395.976,355.977z"/>
</g>
<polygon style="fill:#CCD1D9;" points="255.985,355.977 326.293,384.116 291.983,491.969 286.819,507.968 225.151,507.968 
	219.987,491.969 185.693,384.164 "/>
<polygon style="fill:#ED5565;" points="275.983,395.975 235.986,395.975 222.909,369.211 255.985,355.977 289.069,369.211 "/>
<g style="opacity:0.3;">
	<polygon style="fill:#FFFFFF;" points="226.486,376.523 235.986,395.975 243.986,395.975 233.189,373.876 	"/>
</g>
<g style="opacity:0.3;">
	<polygon points="285.483,376.523 275.983,395.975 267.984,395.975 278.781,373.876 	"/>
</g>
<polygon style="fill:#ED5565;" points="283.983,506.718 227.986,506.718 227.986,435.972 243.986,395.975 267.984,395.975 
	283.983,435.972 "/>
<g style="opacity:0.3;">
	<polygon style="fill:#FFFFFF;" points="251.985,395.975 243.986,395.975 227.986,435.972 227.986,506.718 235.986,506.718 
		235.986,435.972 	"/>
</g>
<g style="opacity:0.3;">
	<polygon points="259.985,395.975 267.984,395.975 283.983,435.972 283.983,491.766 279.217,506.718 275.983,506.718 
		275.983,435.972 	"/>
</g>
<g style="opacity:0.3;">
	<polygon points="255.259,356.275 185.693,384.164 188.294,392.336 255.993,364.727 323.872,391.741 326.293,384.116 
		256.735,356.275 256.001,356.727 	"/>
</g>
<g>
	<path style="fill:#3A3847;" d="M499.97,511.968H12c-2.211,0-4-1.789-4-4v-79.995c0-34.373,17.78-47.513,50.598-59.746
		c12.414-4.555,27.78-10.632,41.123-16.257l6.695-2.945c2.023-0.875,4.375,0.063,5.257,2.094c0.867,2.031-0.07,4.382-2.101,5.249
		l-6.719,2.969c-13.476,5.672-28.975,11.804-41.474,16.39c-30.74,11.453-45.38,22.202-45.38,52.247v75.995H495.97v-75.995
		c0-30.045-14.64-40.794-45.396-52.247c-9.609-3.562-28.671-10.812-48.201-19.365c-2.022-0.884-2.944-3.242-2.062-5.273
		c0.891-2.016,3.289-2.93,5.266-2.055c19.351,8.476,38.239,15.663,47.786,19.194c32.825,12.233,50.605,25.373,50.605,59.746v79.995
		C503.969,510.179,502.181,511.968,499.97,511.968z"/>
	<path style="fill:#3A3847;" d="M255.985,351.978c-54.247,0-143.991-84.12-143.991-179.989c0-2.211,1.789-4,4-4c2.21,0,4,1.789,4,4
		c0,88.687,84.838,171.989,135.992,171.989c45.669,0,126.055-71.589,135.133-156.416c0.234-2.203,2.366-3.75,4.397-3.551
		c2.203,0.235,3.789,2.207,3.555,4.402C390.055,272.655,310.818,351.978,255.985,351.978z"/>
	<path style="fill:#3A3847;" d="M395.976,175.989c-0.047,0-0.093-0.004-0.148-0.004c-2.039-0.074-3.703-1.68-3.844-3.723
		c-0.031-0.438-3.343-43.978-29.911-60.895c-10.266-6.526-20.641-9.698-31.71-9.698c-21.795,0-44.278,12.534-68.074,25.803
		c-29.412,16.397-62.753,34.982-102.985,34.982c-12.952,0-26.155-1.961-39.24-5.828c-4.593-1.39-9.304-3.043-14.022-4.918
		c-1.602-0.637-2.617-2.229-2.515-3.952C103.611,146.28,113.869,0,255.985,0c64.402,0,108.267,25.018,130.359,74.358
		c20.718,46.123,13.889,96.092,13.593,98.197C399.656,174.532,397.961,175.989,395.976,175.989z M111.744,145.342
		c3.586,1.355,7.148,2.57,10.617,3.621c12.319,3.644,24.756,5.491,36.943,5.491c38.154,0,70.527-18.046,99.088-33.97
		c24.732-13.788,48.099-26.815,71.972-26.815c12.64,0,24.421,3.582,36.006,10.949c13.577,8.647,21.726,22.818,26.584,35.919
		c-0.813-17.854-4.085-41.044-13.905-62.902C358.353,31.427,316.95,8,255.985,8C130.641,8,113.744,124.773,111.744,145.342z"/>
	<path style="fill:#3A3847;" d="M364.22,111.993c-0.68,0-1.367-0.172-2-0.535c-1.913-1.105-2.57-3.551-1.461-5.465l18.476-31.997
		c1.102-1.914,3.555-2.56,5.461-1.465c1.914,1.105,2.57,3.551,1.461,5.464l-18.476,31.998
		C366.947,111.274,365.595,111.993,364.22,111.993z"/>
	<path style="fill:#3A3847;" d="M275.983,399.975h-39.997c-1.515,0-2.898-0.859-3.578-2.211l-8-15.999
		c-0.984-1.977-0.188-4.383,1.789-5.367c1.984-0.977,4.375-0.188,5.367,1.789l6.89,13.789h35.061l6.89-13.789
		c0.992-1.977,3.398-2.757,5.367-1.789c1.977,0.984,2.773,3.391,1.789,5.367l-7.999,15.999
		C278.882,399.116,277.5,399.975,275.983,399.975z"/>
	<path style="fill:#3A3847;" d="M227.986,439.972c-0.492,0-1-0.094-1.484-0.281c-2.054-0.828-3.046-3.155-2.226-5.202l15.999-39.998
		c0.82-2.055,3.148-3.046,5.195-2.234c2.055,0.829,3.047,3.156,2.227,5.203l-15.999,39.997
		C231.072,439.02,229.572,439.972,227.986,439.972z"/>
	<path style="fill:#3A3847;" d="M283.983,439.972c-1.586,0-3.086-0.952-3.711-2.516l-15.999-39.997
		c-0.82-2.047,0.173-4.374,2.227-5.203c2.039-0.82,4.375,0.18,5.195,2.234l15.999,39.998c0.82,2.047-0.172,4.374-2.227,5.202
		C284.983,439.879,284.475,439.972,283.983,439.972z"/>
	<path style="fill:#3A3847;" d="M315.419,495.969c-0.82,0-1.641-0.25-2.344-0.766c-1.788-1.289-2.194-3.797-0.897-5.577
		l39.356-54.341l-7.352-22.046c-0.405-1.219-0.203-2.547,0.54-3.594l38.028-53.23l-37.599-37.607c-1.563-1.563-1.563-4.094,0-5.656
		c1.562-1.562,4.093-1.562,5.655,0l39.998,39.998c1.383,1.383,1.563,3.562,0.429,5.156l-38.817,54.34l7.359,22.061
		c0.406,1.219,0.194,2.563-0.556,3.609l-40.56,55.997C317.88,495.39,316.653,495.969,315.419,495.969z"/>
	<path style="fill:#3A3847;" d="M291.983,495.969c-0.398,0-0.813-0.063-1.211-0.188c-2.109-0.671-3.273-2.921-2.602-5.022
		l55.997-175.997c0.664-2.094,2.937-3.281,5.022-2.594c2.109,0.673,3.273,2.922,2.602,5.031L295.795,493.18
		C295.256,494.883,293.677,495.969,291.983,495.969z"/>
	<path style="fill:#3A3847;" d="M315.982,383.976c-0.493,0-1-0.094-1.484-0.281l-59.997-23.999
		c-2.054-0.828-3.047-3.155-2.227-5.202c0.82-2.055,3.156-3.063,5.195-2.234l59.996,23.998c2.055,0.828,3.047,3.156,2.227,5.203
		C319.067,383.023,317.567,383.976,315.982,383.976z"/>
	<path style="fill:#3A3847;" d="M196.551,495.969c-1.235,0-2.461-0.579-3.242-1.656l-40.561-55.997
		c-0.75-1.046-0.96-2.391-0.554-3.609l7.359-22.061l-38.818-54.34c-1.133-1.595-0.953-3.773,0.43-5.156l39.998-39.998
		c1.563-1.562,4.093-1.562,5.656,0c1.563,1.563,1.563,4.094,0,5.656l-37.599,37.607l38.029,53.23
		c0.742,1.047,0.945,2.375,0.539,3.594l-7.351,22.046l39.357,54.341c1.297,1.78,0.891,4.288-0.898,5.577
		C198.192,495.719,197.371,495.969,196.551,495.969z"/>
	<path style="fill:#3A3847;" d="M219.987,495.969c-1.695,0-3.274-1.086-3.813-2.789l-55.997-175.981
		c-0.672-2.109,0.492-4.358,2.602-5.031c2.094-0.688,4.358,0.5,5.023,2.594l55.997,175.997c0.672,2.102-0.492,4.352-2.601,5.022
		C220.799,495.906,220.385,495.969,219.987,495.969z"/>
	<path style="fill:#3A3847;" d="M195.989,383.976c-1.586,0-3.086-0.953-3.711-2.516c-0.82-2.047,0.172-4.375,2.227-5.203
		l59.996-23.998c2.047-0.828,4.375,0.18,5.195,2.234c0.82,2.047-0.172,4.374-2.227,5.202l-59.997,23.999
		C196.989,383.882,196.481,383.976,195.989,383.976z"/>
	<path style="fill:#3A3847;" d="M255.985,495.969c-2.211,0-4-1.789-4-4v-71.995c0-2.211,1.789-4,4-4s4,1.789,4,4v71.995
		C259.985,494.18,258.196,495.969,255.985,495.969z"/>
</g>
<g>
</g>
<g>
</g>
<g>
</g>
<g>
</g>
<g>
</g>
<g>
</g>
<g>
</g>
<g>
</g>
<g>
</g>
<g>
</g>
<g>
</g>
<g>
</g>
<g>
</g>
<g>
</g>
<g>
</g>
</svg>
