<svg id="icons" enable-background="new 0 0 64 64" height="512" viewBox="0 0 64 64" width="512" xmlns="http://www.w3.org/2000/svg"><g><g><path d="m39 12.47-1.5 1.469.35 2.061-1.85-.971-1.86.971.36-2.061-1.5-1.469 2.07-.3.93-1.88.93 1.88z" fill="#ed5565"/></g><g><path d="m59 12.47-1.5 1.469.35 2.061-1.85-.971-1.86.971.36-2.061-1.5-1.469 2.07-.3.93-1.88.93 1.88z" fill="#ed5565"/></g><g><path d="m49 12.47-1.5 1.469.35 2.061-1.85-.971-1.86.971.36-2.061-1.5-1.469 2.07-.3.93-1.88.93 1.88z" fill="#ed5565"/></g><g><path d="m30 32h-4.27c.17-.29.27-.641.27-1 0-1.101-.9-2-2-2s-2 .899-2 2c0 .359.1.71.27 1h-5.27c1.11 0 2-.891 2-2 0-1.66-1.34-3-3-3h9c2.76 0 5 2.24 5 5z" fill="#a0d468"/></g><g><path d="m28 17h-26.98-.02v-2c0-1.101.89-2 2-2h25z" fill="#ccd1d9"/></g><g><path d="m24 29c1.1 0 2 .899 2 2 0 .359-.1.71-.27 1h-3.46c-.17-.29-.27-.641-.27-1 0-1.101.9-2 2-2z" fill="#fc6e51"/></g><g><path d="m19 30c0 1.109-.89 2-2 2h-1v3c0 2.21 1.79 4 4 4h6c2.21 0 4-1.79 4-4v-3c0-2.76-2.24-5-5-5h-9c1.66 0 3 1.34 3 3zm20.02-7-.03 20h-32v-20h21.01 7v2l4-2z" fill="#ed5565"/></g><g><path d="m63 3v20h-17.99-5.99-.02l-4 2v-2h-7v-6-4-10zm-5.5 10.939 1.5-1.47-2.07-.3-.93-1.879-.93 1.88-2.07.3 1.5 1.47-.36 2.06 1.86-.971 1.85.971zm-10 0 1.5-1.47-2.07-.3-.93-1.879-.93 1.88-2.07.3 1.5 1.47-.36 2.06 1.86-.971 1.85.971zm-10 0 1.5-1.47-2.07-.3-.93-1.879-.93 1.88-2.07.3 1.5 1.47-.36 2.06 1.86-.971 1.85.971z" fill="#ffce54"/></g><g><path d="m45.01 23v38h-43.99v-44h26.98v6h-21.01v20h32l.03-20z" fill="#e6e9ed"/></g><g><path d="m30 35c0 2.21-1.79 4-4 4h-6c-2.21 0-4-1.79-4-4v-3h1 5.27 3.461 4.269z" fill="#e6e9ed"/></g></g><g><g><path d="m35 26c-.183 0-.365-.05-.525-.149-.295-.183-.475-.504-.475-.851v-1h-6c-.553 0-1-.448-1-1v-20c0-.552.447-1 1-1h35c.553 0 1 .448 1 1v20c0 .552-.447 1-1 1h-23.764l-3.789 1.895c-.141.07-.294.105-.447.105zm-6-4h6c.553 0 1 .448 1 1v.382l2.553-1.276c.138-.07.292-.106.447-.106h23v-18h-33z"/></g><g><path d="m34.145 17c-.207 0-.414-.064-.588-.191-.308-.224-.462-.604-.397-.979l.266-1.547-1.122-1.094c-.273-.266-.371-.663-.254-1.025s.431-.626.807-.681l1.553-.226.695-1.408c.336-.683 1.457-.683 1.793 0l.695 1.408 1.553.226c.376.055.689.319.807.681.117.362.02.759-.254 1.025l-1.123 1.094.265 1.547c.064.375-.09.754-.397.978-.309.224-.716.253-1.054.076l-1.39-.73-1.39.731c-.146.077-.306.115-.465.115zm1.004-3.829.048.047c.236.23.344.561.288.886l-.012.067.061-.032c.293-.153.641-.153.932 0l.061.032-.012-.068c-.056-.325.052-.656.288-.885l.048-.047-.067-.01c-.325-.047-.606-.252-.752-.547l-.032-.062-.031.063c-.146.295-.427.5-.752.547z"/></g><g><path d="m44.145 17c-.207 0-.414-.064-.588-.191-.308-.224-.462-.604-.397-.979l.266-1.547-1.122-1.094c-.273-.266-.371-.663-.254-1.025s.431-.626.807-.681l1.553-.226.695-1.408c.336-.683 1.457-.683 1.793 0l.695 1.408 1.553.226c.376.055.689.319.807.681.117.362.02.759-.254 1.025l-1.123 1.094.265 1.547c.064.375-.09.754-.397.978-.309.224-.716.253-1.054.076l-1.39-.73-1.39.731c-.146.077-.306.115-.465.115zm1.004-3.829.048.047c.236.23.344.561.288.886l-.012.067.061-.032c.293-.153.641-.153.932 0l.061.032-.012-.068c-.056-.325.052-.656.288-.885l.048-.047-.067-.01c-.325-.047-.606-.252-.752-.547l-.032-.062-.031.063c-.146.295-.427.5-.752.547z"/></g><g><path d="m54.145 17c-.207 0-.414-.064-.588-.191-.308-.224-.462-.604-.397-.979l.266-1.547-1.122-1.094c-.273-.266-.371-.663-.254-1.025s.431-.626.807-.681l1.553-.226.695-1.408c.336-.683 1.457-.683 1.793 0l.695 1.408 1.553.226c.376.055.689.319.807.681.117.362.02.759-.254 1.025l-1.123 1.094.265 1.547c.064.375-.09.754-.397.978-.309.224-.716.253-1.054.076l-1.39-.73-1.39.731c-.146.077-.306.115-.465.115zm1.004-3.829.048.047c.236.23.344.561.288.886l-.012.067.061-.032c.293-.153.641-.153.932 0l.061.032-.012-.068c-.056-.325.052-.656.288-.885l.048-.047-.067-.01c-.325-.047-.606-.252-.752-.547l-.032-.062-.031.063c-.146.295-.427.5-.752.547z"/></g><g><g><g><path d="m4.03 16.001c-.553 0-1.005-.448-1.005-1s.442-1 .994-1h.011c.552 0 1 .448 1 1s-.448 1-1 1z"/></g><g><path d="m7.03 16.001c-.553 0-1.005-.448-1.005-1s.442-1 .994-1h.011c.552 0 1 .448 1 1s-.448 1-1 1z"/></g><g><path d="m10.03 16.001c-.553 0-1.005-.448-1.005-1s.442-1 .994-1h.011c.552 0 1 .448 1 1s-.448 1-1 1z"/></g><g><path d="m45.014 62h-43.996c-.553 0-1-.447-1-1v-43.999c0-.552.447-1 1-1h26.982c.553 0 1 .448 1 1s-.447 1-1 1h-25.982v41.999h41.996v-37c0-.552.447-1 1-1s1 .448 1 1v38c0 .553-.448 1-1 1z"/></g><g><path d="m1 16.001c-.553 0-1-.448-1-1 0-1.654 1.346-3 3-3 .553 0 1 .448 1 1s-.447 1-1 1c-.552 0-1 .449-1 1 0 .552-.447 1-1 1z"/></g><g><path d="m1 18.001c-.553 0-1-.448-1-1v-2c0-.552.447-1 1-1s1 .448 1 1v2c0 .552-.447 1-1 1z"/></g><g><path d="m28 14.001h-25c-.553 0-1-.448-1-1s.447-1 1-1h25c.553 0 1 .448 1 1s-.447 1-1 1z"/></g></g><g><path d="m38.988 44h-31.996c-.553 0-1-.447-1-1v-19.999c0-.552.447-1 1-1s1 .448 1 1v18.999h29.997l.026-19.002c.001-.552.448-.999 1-.999h.001c.553.001 1 .449.999 1.001l-.027 20c-.001.553-.448 1-1 1z"/></g><g><path d="m38.988 48h-31.996c-.553 0-1-.447-1-1s.447-1 1-1h31.996c.553 0 1 .447 1 1s-.447 1-1 1z"/></g><g><path d="m38.988 50.999h-31.988c-.553 0-1-.447-1-1s.447-1 1-1h31.988c.553 0 1 .447 1 1s-.447 1-1 1z"/></g><g><path d="m22.973 54.002h-15.973c-.553 0-1-.447-1-1s.447-1 1-1h15.973c.553 0 1 .447 1 1s-.448 1-1 1z"/></g><g><path d="m34.994 54.999h-3.979c-.553 0-1-.447-1-1s.447-1 1-1h3.979c.553 0 1 .447 1 1s-.447 1-1 1z"/></g><g><path d="m28 24.001h-21.008c-.553 0-1-.448-1-1s.447-1 1-1h21.008c.553 0 1 .448 1 1s-.447 1-1 1z"/></g><g><path d="m39.016 53.999h-1c-.553 0-1-.447-1-1s.447-1 1-1h1c.553 0 1 .447 1 1s-.448 1-1 1z"/></g><g><path d="m39.017 55.999c-.367 0-.72-.202-.896-.553l-1-2c-.247-.494-.047-1.095.447-1.342.493-.245 1.094-.047 1.342.447l1 2c.247.494.047 1.095-.447 1.342-.144.072-.296.106-.446.106z"/></g><g><path d="m39.016 55.999h-1c-.553 0-1-.447-1-1s.447-1 1-1h1c.553 0 1 .447 1 1s-.448 1-1 1z"/></g><g><g><path d="m19.998 40.001c-2.757 0-5-2.243-5-5 0-.553.447-1 1-1s1 .447 1 1c0 1.654 1.346 3 3 3 .553 0 1 .447 1 1s-.447 1-1 1z"/></g><g><path d="m26 40.001c-.553 0-1-.447-1-1s.447-1 1-1c1.654 0 3-1.346 3-3 0-.553.447-1 1-1s1 .447 1 1c0 2.757-2.243 5-5 5z"/></g><g><path d="m26 40.001h-6.002c-.553 0-1-.447-1-1s.447-1 1-1h6.002c.553 0 1 .447 1 1s-.447 1-1 1z"/></g><g><path d="m30 36.001c-.553 0-1-.447-1-1v-3.002c0-.552.447-1 1-1s1 .448 1 1v3.002c0 .553-.447 1-1 1z"/></g><g><path d="m30 32.999h-14c-.553 0-1-.448-1-1s.447-1 1-1h14c.553 0 1 .448 1 1s-.447 1-1 1z"/></g><g><path d="m16 36.001c-.553 0-1-.447-1-1v-3.002c0-.552.447-1 1-1s1 .448 1 1v3.002c0 .553-.447 1-1 1z"/></g><g><path d="m30 32.999c-.553 0-1-.448-1-1 0-2.206-1.794-4-4-4-.553 0-1-.448-1-1s.447-1 1-1c3.309 0 6 2.691 6 6 0 .552-.447 1-1 1z"/></g><g><path d="m25 27.999h-9c-.553 0-1-.448-1-1s.447-1 1-1h9c.553 0 1 .448 1 1s-.447 1-1 1z"/></g><g><path d="m19 30.999c-.553 0-1-.448-1-1 0-1.103-.897-2-2-2-.553 0-1-.448-1-1s.447-1 1-1c2.206 0 4 1.794 4 4 0 .552-.447 1-1 1z"/></g><g><path d="m17 32.999c-.553 0-1-.448-1-1s.447-1 1-1c.552 0 1-.449 1-1 0-.552.447-1 1-1s1 .448 1 1c0 1.654-1.346 3-3 3z"/></g><g><path d="m26 31.999c-.553 0-1-.448-1-1 0-.551-.448-1-1-1s-1 .449-1 1c0 .552-.447 1-1 1s-1-.448-1-1c0-1.654 1.346-3 3-3s3 1.346 3 3c0 .552-.447 1-1 1z"/></g><g><path d="m22.269 33c-.346 0-.683-.18-.867-.501-.263-.455-.402-.974-.402-1.5 0-.552.447-1 1-1s1 .448 1 1c0 .179.045.347.134.502.276.479.111 1.09-.367 1.366-.158.09-.329.133-.498.133z"/></g><g><path d="m25.729 32.999c-.171 0-.344-.044-.503-.136-.477-.278-.638-.89-.36-1.367.089-.153.134-.32.134-.497 0-.552.447-1 1-1s1 .448 1 1c0 .528-.141 1.048-.405 1.503-.187.319-.522.497-.866.497z"/></g></g></g></g></svg>