<svg height="400pt" viewBox="-117 0 400 400.00006" width="400pt" xmlns="http://www.w3.org/2000/svg"><path d="m94.394531 351.027344-48.851562-59.652344c-4.523438-5.527344-6.410157-12.75-5.167969-19.78125l40.324219-228.058594-17.355469-33.535156h-45.53125l32.886719 63.535156-40.324219 228.058594c-1.242188 7.03125.644531 14.253906 5.167969 19.78125l48.851562 59.652344c4.652344 5.679687 11.609375 8.972656 18.949219 8.972656 7.34375 0 14.300781-3.292969 18.949219-8.972656l18.058593-22.050782c-9.464843 2.832032-19.703124-.304687-25.957031-7.949218zm0 0" fill="#d4e1f4"/><path d="m83.34375 400c-10.34375.019531-20.148438-4.625-26.6875-12.640625l-48.847656-59.648437c-6.375-7.78125-9.035156-17.957032-7.28125-27.859376l40.324218-228.058593c.960938-5.4375 6.148438-9.066407 11.589844-8.105469 5.4375.960938 9.066406 6.152344 8.105469 11.589844l-40.324219 228.054687c-.734375 4.160157.382813 8.433594 3.058594 11.699219l48.847656 59.652344c2.753906 3.363281 6.871094 5.3125 11.214844 5.3125s8.460938-1.949219 11.210938-5.3125l48.851562-59.652344c2.675781-3.265625 3.792969-7.539062 3.058594-11.699219l-40.320313-228.054687c-.960937-5.4375 2.667969-10.628906 8.105469-11.589844s10.628906 2.667969 11.589844 8.105469l40.320312 228.058593c1.757813 9.902344-.902344 20.078126-7.28125 27.859376l-48.847656 59.648437c-6.539062 8.015625-16.34375 12.660156-26.6875 12.640625zm0 0" fill="#0635c9"/><path d="m115.988281 83.535156h-65.289062c-3.738281 0-7.164063-2.082031-8.882813-5.398437l-32.882812-63.535157c-1.609375-3.101562-1.480469-6.816406.332031-9.796874 1.816406-2.984376 5.054687-4.804688 8.546875-4.804688h131.0625c3.492188 0 6.730469 1.820312 8.546875 4.804688 1.8125 2.980468 1.941406 6.695312.332031 9.796874l-32.882812 63.535157c-1.71875 3.316406-5.144532 5.398437-8.882813 5.398437zm-59.207031-20h53.125l22.539062-43.535156h-98.191406zm0 0" fill="#1ae5be"/></svg>