<svg preserveAspectRatio="xMidYMid meet" data-bbox="46.737 15.074 119.033 169.85" xmlns="http://www.w3.org/2000/svg" viewBox="46.737 15.074 119.033 169.85" role="img">
    <g>
        <path d="M165.103 55.067a3.609 3.609 0 0 0-3.858-1.413l-50.149 13.014 18.017-46.673a3.612 3.612 0 0 0-.643-3.674 3.611 3.611 0 0 0-3.554-1.152l-62.061 14.47a3.632 3.632 0 0 0-2.748 2.96l-13.325 83.652a3.606 3.606 0 0 0 1.074 3.179 3.604 3.604 0 0 0 3.236.926l44.024-9.192-19.684 69.154a3.612 3.612 0 0 0 3.476 4.606 3.635 3.635 0 0 0 3.01-1.597L165.16 59.171a3.618 3.618 0 0 0-.057-4.104z"></path>
    </g>
</svg>