<svg preserveAspectRatio="xMidYMid meet" data-bbox="47.59 15.4 104.549 169.15" xmlns="http://www.w3.org/2000/svg" viewBox="47.59 15.4 104.549 169.15" role="img">
    <g>
        <path d="M82.1 34.5C87 27.4 92.3 20 99.8 15.4c7.4 4.4 12.7 11.7 17.5 18.7 11.4 17.3 18.4 38.1 17 59.1 3.7 3.1 7.5 6.1 11.1 9.2 5.2 4.8 7.7 12.3 6.4 19.3-1.8 8.8-3.4 17.6-5.3 26.4-1 4.5-7.1 6.6-10.7 3.7-6-5-11.8-10.1-17.7-15.1-4.5 4.3-10.5 7.2-16.8 7.6-7.2.5-14.4-2.5-19.7-7.4-4.3 3.3-8.2 7.2-12.4 10.7-2 1.6-3.7 3.8-6.1 4.9-3.7 1.6-8.5-.8-9.3-4.8-1.9-8.6-3.9-17.1-5.8-25.7-1.5-7.3 1.2-15.2 6.8-20.1 3.2-2.7 6.5-5.4 9.8-8 .9-.5.5-1.6.5-2.4-.8-20.3 6.1-40.3 17-57zM88 61.1c-4.3 5.6-3.8 14.2 1.2 19.2 5.3 5.9 15.4 6.1 20.9.4 4.3-3.9 5.7-10.5 3.7-15.9-1.9-5.2-6.9-9.1-12.4-9.6-5.1-.6-10.4 1.7-13.4 5.9z"></path>
        <path d="M80 154.8c-.1-2.5 3.1-4.3 5.2-2.9 9 4.6 20.2 4.6 29.2 0 2.1-1.3 5.1.3 5.2 2.7v16.1c0 2.6-3.4 4.3-5.5 2.7-1.5-1.4-2.9-2.9-4.4-4.3-2.4 4.6-4.6 9.3-7 13.8-1.1 2.2-4.7 2.2-5.9 0-2.4-4.6-4.6-9.3-7-13.9-1.5 1.5-2.9 3-4.4 4.3-2 1.7-5.5-.1-5.5-2.7.1-5.1.1-10.4.1-15.8z"></path>
    </g>
</svg>