<svg height="512" viewBox="0 0 64 64" width="512" xmlns="http://www.w3.org/2000/svg"><g id="Search"><circle cx="22" cy="22" fill="#57a4ff" r="19"/><path d="m41 22a18.96 18.96 0 0 1 -21 18.89 19 19 0 0 0 0-37.78 18.96 18.96 0 0 1 21 18.89z" fill="#2488ff"/><path d="m59.75 59.75a4.008 4.008 0 0 1 -5.66 0l-16.26-16.26 5.66-5.66 16.26 16.26a4.008 4.008 0 0 1 0 5.66z" fill="#c0ab91"/><path d="m59.75 59.75a3.993 3.993 0 0 1 -4.83.63 3.87 3.87 0 0 0 .83-.63 4.008 4.008 0 0 0 0-5.66l-14.26-14.26 2-2 16.26 16.26a4.008 4.008 0 0 1 0 5.66z" fill="#b39a7c"/><path d="m60.1 23.13-2.84 1.37.23 3.14-3.13.32-.86 3.03-3.05-.77-1.85 2.55-2.6-1.77-2.6 1.77-1.85-2.55-3.05.77-.86-3.03-3.13-.32.23-3.14-2.84-1.37 1.3-2.87-2.2-2.26 2.2-2.26-.34-.74-.96-2.13 2.84-1.37-.23-3.14 3.13-.32.86-3.03 3.05.77 1.85-2.55 2.6 1.77 2.6-1.77 1.85 2.55 3.05-.77.86 3.03 3.13.32-.23 3.14 2.84 1.37-.96 2.13-.34.74 2.2 2.26-2.2 2.26z" fill="#ff7956"/><path d="m60.1 23.13-2.84 1.37.23 3.14-3.13.32-.86 3.03-3.05-.77-1.85 2.55-2.6-1.77-2.6 1.77-1.85-2.55-3.05.77-.86-3.03-3.13-.32.12-1.66a22.4 22.4 0 0 0 15.37-4.98 22.586 22.586 0 0 0 7.49-12.57l-.23 3.07 2.84 1.37-.96 2.13-.34.74 2.2 2.26-2.2 2.26z" fill="#ff5023"/><circle cx="51" cy="23" fill="#ffde55" r="3"/><circle cx="41" cy="13" fill="#ffde55" r="3"/><path d="m42.08 39.25-2.83 2.83-.01-.01-5.29-5.29a18.927 18.927 0 0 0 2.82-2.84l5.3 5.3z" fill="#c6c5ca"/><path d="m31 18-2 8h-14v-8z" fill="#ffde55"/><g fill="#00eed1"><circle cx="26" cy="32" r="2"/><circle cx="16" cy="32" r="2"/><circle cx="23" cy="17" r="5"/></g><path d="m26 29a3 3 0 0 0 -2.816 2h-4.368a2.982 2.982 0 0 0 -5.632 0h-2.079l1.895-18.9a1 1 0 0 0 -1-1.1h-4v2h2.9l-1.895 18.9a1 1 0 0 0 .995 1.1h3.184a2.982 2.982 0 0 0 5.632 0h4.368a2.982 2.982 0 0 0 5.632 0h3.184v-2h-3.184a3 3 0 0 0 -2.816-2zm-10 4a1 1 0 1 1 1-1 1 1 0 0 1 -1 1zm10 0a1 1 0 1 1 1-1 1 1 0 0 1 -1 1z"/><path d="m23 20a1 1 0 0 0 .555-.168l3-2-1.11-1.664-1.445.963v-2.131h-2v2.132l-1.445-.964-1.11 1.664 3 2v-.007c.027.018.049.041.078.057a1 1 0 0 0 .477.118z"/><path d="m44.192 37.122a1 1 0 0 0 -1.414 0l-.706.706-3.972-3.974a19.987 19.987 0 0 0 1.324-2.065l1.717-.434 1.446 2a1 1 0 0 0 1.374.242l2.039-1.387 2.041 1.39a1 1 0 0 0 1.374-.242l1.445-2 2.4.6a1 1 0 0 0 1.208-.7l.67-2.377 2.457-.248a1 1 0 0 0 .9-1.068l-.179-2.464 2.225-1.073a1 1 0 0 0 .478-1.311l-1.019-2.248 1.717-1.769a1 1 0 0 0 0-1.394l-1.717-1.775 1.015-2.252a1 1 0 0 0 -.478-1.312l-2.229-1.067.18-2.464a1 1 0 0 0 -.9-1.068l-2.457-.248-.67-2.378a1 1 0 0 0 -1.208-.7l-2.4.606-1.446-2a1 1 0 0 0 -1.366-.248l-2.041 1.39-2.041-1.39a1 1 0 0 0 -1.374.242l-1.445 2-2.4-.605a1 1 0 0 0 -1.208.7l-.67 2.377-1.4.141a19.775 19.775 0 0 0 -13.462-5.255 20 20 0 1 0 11.855 36.1l3.973 3.973-.707.706a1 1 0 0 0 0 1.414l16.264 16.263a5 5 0 1 0 7.071-7.071zm-6.447-28.086a1 1 0 0 0 .862-.724l.59-2.1 2.111.534a1 1 0 0 0 1.055-.385l1.274-1.761 1.8 1.227a1 1 0 0 0 1.126 0l1.8-1.227 1.275 1.766a1 1 0 0 0 1.055.384l2.107-.534.59 2.1a1 1 0 0 0 .862.724l2.167.219-.159 2.172a1 1 0 0 0 .562.974l1.961.945-.894 1.984a1 1 0 0 0 .2 1.108l1.516 1.558-1.517 1.563a1 1 0 0 0 -.2 1.107l.894 1.985-1.961.945a1 1 0 0 0 -.562.973l.158 2.173-2.167.218a1 1 0 0 0 -.862.724l-.59 2.1-2.111-.534a1 1 0 0 0 -1.055.385l-1.269 1.761-1.8-1.227a1 1 0 0 0 -1.126 0l-1.8 1.227-1.275-1.766a1 1 0 0 0 -.81-.415.98.98 0 0 0 -.245.031l-2.111.534-.59-2.1a1 1 0 0 0 -.862-.724l-2.167-.219.159-2.172a1 1 0 0 0 -.562-.974l-1.961-.945.894-1.984a1 1 0 0 0 -.2-1.107l-1.507-1.559 1.517-1.563a1 1 0 0 0 .2-1.107l-.894-1.985 1.961-.945a1 1 0 0 0 .562-.973l-.158-2.173zm-33.745 12.964a18.021 18.021 0 0 1 18-18 17.784 17.784 0 0 1 11.538 4.222.9.9 0 0 0 -.025.208l.179 2.464-2.225 1.073a1 1 0 0 0 -.478 1.311l1.011 2.253-1.422 1.469h-1.578a6 6 0 0 0 -12 0h-2a1 1 0 0 0 -1 1v8a1 1 0 0 0 1 1h14a1 1 0 0 0 .97-.757l1.564-6.258.47.484-1.015 2.252a1 1 0 0 0 .478 1.312l2.225 1.072-.18 2.464a1 1 0 0 0 .9 1.068l2.457.248.632 2.242a17.989 17.989 0 0 1 -33.501-9.127zm19 1a6 6 0 0 0 5.65-4h1.069l-1.5 6h-12.219v-6h1.35a6 6 0 0 0 5.65 4zm-4-6a4 4 0 1 1 4 4 4 4 0 0 1 -4-4zm16.415 19.831a19.9 19.9 0 0 0 1.409-1.422l3.834 3.833-1.416 1.416zm23.627 22.211a3.005 3.005 0 0 1 -4.243 0l-15.557-15.557 4.243-4.242 15.557 15.557a3.005 3.005 0 0 1 0 4.242z"/><path d="m51 19a4 4 0 1 0 4 4 4 4 0 0 0 -4-4zm0 6a2 2 0 1 1 2-2 2 2 0 0 1 -2 2z"/><path d="m41 17a4 4 0 1 0 -4-4 4 4 0 0 0 4 4zm0-6a2 2 0 1 1 -2 2 2 2 0 0 1 2-2z"/><path d="m34.686 17h22.627v2h-22.627z" transform="matrix(.707 -.707 .707 .707 .745 37.799)"/></g></svg>