<?xml version="1.0" encoding="iso-8859-1"?>
<!-- Generator: Adobe Illustrator 19.0.0, SVG Export Plug-In . SVG Version: 6.00 Build 0)  -->
<svg version="1.1" id="Capa_1" xmlns="http://www.w3.org/2000/svg" xmlns:xlink="http://www.w3.org/1999/xlink" x="0px" y="0px"
	 viewBox="0 0 512 512" style="enable-background:new 0 0 512 512;" xml:space="preserve">
<path style="fill:#5D9CEC;" d="M443.993,459.666c0,17.601-14.398,31.999-31.998,31.999H100.004
	c-17.601,0-31.999-14.398-31.999-31.999v-87.662c0-17.601,14.398-31.999,31.999-31.999h311.991c17.6,0,31.998,14.398,31.998,31.999
	V459.666z"/>
<g style="opacity:0.3;">
	<path style="fill:#FFFFFF;" d="M84.004,459.666v-87.662c0-17.601,14.398-31.999,31.999-31.999h-16
		c-17.601,0-31.999,14.398-31.999,31.999v87.662c0,17.601,14.398,31.999,31.999,31.999h16
		C98.402,491.665,84.004,477.267,84.004,459.666z"/>
</g>
<g style="opacity:0.2;">
	<path d="M428.399,459.666v-87.662c0-17.601-14.396-31.999-31.998-31.999h16c17.6,0,31.998,14.398,31.998,31.999v87.662
		c0,17.601-14.398,31.999-31.998,31.999h-16C414.003,491.665,428.399,477.267,428.399,459.666z"/>
</g>
<path style="fill:#A0D468;" d="M451.993,404.003c-17.039-6.319-48.154-18.397-71.998-30.483c-4.719-2.477-9.203-4.875-13.203-7.281
	c-0.797,2.242-27.67,61.764-110.793,61.764c-84.232,0-109.997-59.443-110.793-61.764c-4,2.406-8.484,4.805-13.203,7.281
	c-23.843,12.086-54.959,24.164-71.998,30.483c-31.999,11.922-47.999,23.999-47.999,55.999c0,31.998,0,47.998,0,47.998h487.985
	c0,0,0-16,0-47.998C499.991,428.002,483.993,415.925,451.993,404.003z"/>
<g style="opacity:0.3;">
	<path d="M379.995,373.52c-4.719-2.477-9.203-4.875-13.203-7.281c-0.688,1.938-6.508,11.938-7.586,13.234
		c2.352,1.359,12.102,5.383,14.477,6.68C378.167,378.699,379.995,373.52,379.995,373.52z"/>
	<path d="M359.206,379.473c-0.039-0.023-0.109-0.055-0.141-0.078C358.956,379.707,359.026,379.676,359.206,379.473z"/>
</g>
<g style="opacity:0.4;">
	<path style="fill:#FFFFFF;" d="M132.003,373.52c4.718-2.477,9.203-4.875,13.203-7.281c0.688,1.938,6.508,11.938,7.586,13.234
		c-2.352,1.359-12.102,5.383-14.477,6.68C133.831,378.699,132.003,373.52,132.003,373.52z"/>
	<path style="fill:#FFFFFF;" d="M152.791,379.473c0.039-0.023,0.109-0.055,0.141-0.078
		C153.041,379.707,152.971,379.676,152.791,379.473z"/>
</g>
<g style="opacity:0.5;">
	<path style="fill:#FFFFFF;" d="M28.006,468.001c0-31.999,16-44.076,47.999-55.998c14.82-5.5,40.288-15.351,62.357-25.78
		c-4.516-7.492-6.359-12.703-6.359-12.703c-23.843,12.086-54.959,24.164-71.998,30.483c-31.999,11.922-47.999,23.999-47.999,55.999
		c0,31.998,0,47.998,0,47.998h16C28.006,500.289,28.006,487.048,28.006,468.001z"/>
</g>
<g style="opacity:0.3;">
	<path d="M483.993,468.001c0-31.999-16-44.076-48-55.998c-14.82-5.5-40.287-15.351-62.357-25.78
		c4.516-7.492,6.359-12.703,6.359-12.703c23.844,12.086,54.959,24.164,71.998,30.483c32,11.922,47.998,23.999,47.998,55.999
		c0,31.998,0,47.998,0,47.998h-15.998C483.993,500.289,483.993,487.048,483.993,468.001z"/>
</g>
<g>
	<path style="fill:#EAC6BB;" d="M255.999,372.004c27.281,0,63.279-22.077,91.998-55.998v31.999c0,5.117,7.516,11.516,18.795,18.233
		c-0.797,2.242-27.67,61.764-110.793,61.764c-84.232,0-109.997-59.443-110.793-61.764c11.281-6.718,18.796-13.116,18.796-18.233
		v-31.999C192.72,349.927,228.718,372.004,255.999,372.004z"/>
	<path style="fill:#EAC6BB;" d="M395.354,180.01l0.641,16c0,44.717-20.719,87.677-47.998,119.996
		c-28.719,33.921-64.717,55.998-91.998,55.998s-63.279-22.077-91.997-55.998c-27.281-32.319-47.999-75.279-47.999-119.996v-14.375
		c45.03-23.655,147.378-70.841,239.994-65.389L395.354,180.01z"/>
</g>
<g style="opacity:0.2;">
	<path d="M395.354,180.01l-16-26.187l0.641,42.187c0,44.717-20.719,87.677-47.998,119.996c-26,30.702-57.936,51.639-83.998,55.35
		c2.734,0.383,5.414,0.648,8,0.648c27.281,0,63.279-22.077,91.998-55.998c27.279-32.319,47.998-75.279,47.998-119.996
		L395.354,180.01z"/>
</g>
<g style="opacity:0.5;">
	<path style="fill:#FFFFFF;" d="M180.001,316.006c-27.28-32.319-47.999-75.279-47.999-119.996v-22.515l-16,8.14v14.375
		c0,44.717,20.718,87.677,47.999,119.996c28.718,33.921,64.716,55.998,91.997,55.998c2.586,0,5.266-0.266,8-0.648
		C237.937,367.645,206,346.708,180.001,316.006z"/>
</g>
<g style="opacity:0.2;">
	<path d="M255.999,372.004c-27.281,0-63.279-22.077-91.997-55.998v8c28.718,33.921,64.716,55.998,91.997,55.998
		s63.279-22.077,91.998-55.998v-8C319.278,349.927,283.28,372.004,255.999,372.004z"/>
</g>
<path style="fill:#656D78;" d="M148.002,28.015C147.604,28.171,415.12-85.34,395.354,180.01l-39.357-63.764
	c-120.794-7.117-259.759,76.162-263.915,78.639c-0.078,0.086-0.078,0.086-0.078,0.086c0-119.996,78.318-153.597,78.318-153.597
	L148.002,28.015z"/>
<g style="opacity:0.2;">
	<path d="M255.64,4.172C318.403,6.5,381.347,38.069,380.378,155.745l14.977,24.265C406.433,31.312,327.294,1.594,255.64,4.172z"/>
</g>
<g style="opacity:0.3;">
	<path style="fill:#FFFFFF;" d="M186.322,41.374l-22.32-13.359C163.83,28.085,215.43,6.196,271.64,4.172
		c-62.014-2.305-123.825,23.921-123.637,23.843l22.319,13.359c0,0-78.318,33.601-78.318,153.597c0,0,0,0,0.078-0.086
		c0.797-0.469,6.539-3.906,16.109-9.086C112.066,73.279,186.322,41.374,186.322,41.374z"/>
</g>
<g style="opacity:0.5;">
	<path style="fill:#FFFFFF;" d="M157.291,377.402c10.601-6.906,22.71-16.882,22.71-21.397v-15.039
		c-5.5-5.241-10.875-10.905-16-16.96v23.999c0,5.117-16.734,16.976-15.742,16.343C150.19,367.754,153.19,372.348,157.291,377.402z"
		/>
</g>
<g style="opacity:0.2;">
	<path d="M363.659,364.301c-0.031,0.055-0.078,0.125-0.117,0.188c-1.883-1.437-15.436-11.483-15.436-16.108v-24.374
		c-5.125,6.055-10.5,11.75-16,16.991v15.383c0,4.445,11.758,14.194,22.25,21.085c-15,18.133-45.062,42.538-98.357,42.538
		c-69.177,0-98.872-40.038-107.739-55.655c-0.992,0.633-1.992,1.258-3.055,1.891c0.797,2.32,26.562,61.764,110.793,61.764
		c83.123,0,109.996-59.521,110.793-61.764C365.698,365.59,364.683,364.949,363.659,364.301z"/>
</g>
<polygon style="fill:#656D78;" points="124.003,364.004 84.004,380.004 84.004,508 124.003,508 "/>
<g style="opacity:0.2;">
	<polygon points="116.003,367.199 116.003,508 124.003,508 124.003,364.004 	"/>
</g>
<g style="opacity:0.3;">
	<polygon style="fill:#FFFFFF;" points="124.003,367.199 124.003,364.004 84.004,380.004 84.004,508 92.004,508 92.004,380.004 	"/>
</g>
<polygon style="fill:#656D78;" points="387.995,364.004 427.993,380.004 427.993,508 387.995,508 "/>
<g style="opacity:0.3;">
	<polygon style="fill:#FFFFFF;" points="395.995,367.199 395.995,508 387.995,508 387.995,364.004 	"/>
</g>
<g style="opacity:0.2;">
	<polygon points="387.995,367.199 387.995,364.004 427.993,380.004 427.993,508 419.995,508 419.995,380.004 	"/>
</g>
<g>
	<path style="fill:#3A3847;" d="M132.003,377.488c-1.453,0-2.859-0.797-3.562-2.188c-1.008-1.969-0.219-4.375,1.742-5.375
		c28.382-14.476,29.819-20.804,29.819-21.921c0-2.211,1.789-4,4-4c2.21,0,4,1.789,4,4c0,5.406-3.883,13.594-34.179,29.046
		C133.237,377.348,132.62,377.488,132.003,377.488z"/>
	<path style="fill:#3A3847;" d="M499.991,512H12.006c-2.211,0-4-1.789-4-4v-47.998c0-34.335,17.781-47.491,50.601-59.748
		c4.46-1.664,9.905-3.727,15.944-6.078c2.055-0.812,4.375,0.211,5.18,2.273s-0.219,4.375-2.273,5.18
		c-6.086,2.367-11.562,4.444-16.054,6.116c-30.757,11.492-45.397,22.241-45.397,52.257V504h479.985v-43.998
		c0-30.016-14.639-40.765-45.396-52.257c-4.5-1.68-9.984-3.757-16.07-6.124c-2.055-0.805-3.078-3.117-2.273-5.18
		s3.133-3.086,5.18-2.273c6.039,2.352,11.492,4.414,15.969,6.086c32.811,12.257,50.592,25.413,50.592,59.748V508
		C503.991,510.211,502.202,512,499.991,512z"/>
	<path style="fill:#3A3847;" d="M379.995,377.488c-0.617,0-1.234-0.141-1.82-0.438c-30.295-15.452-34.178-23.64-34.178-29.046
		c0-2.211,1.789-4,4-4s4,1.789,4,4c0,1.117,1.438,7.445,29.818,21.921c1.961,1,2.75,3.406,1.742,5.375
		C382.854,376.691,381.448,377.488,379.995,377.488z"/>
	<path style="fill:#3A3847;" d="M255.991,376.004c-54.249,0-143.988-84.13-143.988-179.994c0-2.211,1.789-4,4-4s4,1.789,4,4
		c0,88.685,84.833,171.994,135.988,171.994c51.162,0,136.004-83.31,136.004-171.994c0-2.211,1.789-4,4-4s4,1.789,4,4
		C399.995,291.874,310.239,376.004,255.991,376.004z"/>
	<path style="fill:#3A3847;" d="M164.002,352.005c-2.211,0-4-1.789-4-4v-31.999c0-2.211,1.789-4,4-4c2.21,0,4,1.789,4,4v31.999
		C168.001,350.216,166.212,352.005,164.002,352.005z"/>
	<path style="fill:#3A3847;" d="M347.997,352.005c-2.211,0-4-1.789-4-4v-31.999c0-2.211,1.789-4,4-4s4,1.789,4,4v31.999
		C351.997,350.216,350.208,352.005,347.997,352.005z"/>
	<path style="fill:#3A3847;" d="M92.004,198.963c-0.671,0-1.351-0.172-1.96-0.516c-1.258-0.711-2.039-2.039-2.039-3.484
		C87.989,94.364,143.026,52.67,162.228,41.187l-16.281-9.742c-1.875-1.117-2.5-3.531-1.414-5.43C146.213,23.101,205.961,0,263.811,0
		c43.576,0,77.404,12.64,100.543,37.569c28.016,30.187,39.781,78.208,34.977,142.737c-0.133,1.727-1.359,3.18-3.047,3.586
		c-1.68,0.406-3.445-0.312-4.352-1.781l-38.24-61.975c-119.49-5.921-258.274,77.428-259.61,78.24
		C93.441,198.768,92.723,198.963,92.004,198.963z M157.08,28.78l15.289,9.148c1.289,0.773,2.031,2.203,1.938,3.695
		c-0.102,1.5-1.031,2.82-2.406,3.414c-0.195,0.078-19.218,8.484-37.968,31.046c-16.632,20-36.327,55.436-37.834,111.879
		c28.718-16.272,152.222-82.091,260.132-75.693c1.305,0.07,2.484,0.781,3.172,1.891l32.68,52.959
		c2.312-55.866-8.969-97.575-33.594-124.105C336.927,19.781,305.067,8,263.811,8C218.493,8,174.244,22.46,157.08,28.78z"/>
	<path style="fill:#3A3847;" d="M255.991,432.002c-88.123,0-114.34-63.787-114.559-64.436c-0.734-2.086,0.367-4.358,2.453-5.093
		c2.094-0.727,4.375,0.375,5.094,2.46c0.211,0.57,24.241,59.069,107.012,59.069c81.451,0,106.832-58.554,107.059-59.147
		c0.805-2.038,3.117-3.085,5.172-2.288c2.047,0.789,3.086,3.054,2.32,5.108C370.3,368.316,342.591,432.002,255.991,432.002z"/>
	<path style="fill:#3A3847;" d="M124.003,504.75c-2.21,0-4-1.789-4-4V364.004c0-2.21,1.789-3.999,4-3.999s4,1.789,4,3.999V500.75
		C128.003,502.961,126.214,504.75,124.003,504.75z"/>
	<path style="fill:#3A3847;" d="M84.004,384.004c-1.586,0-3.086-0.953-3.711-2.516c-0.82-2.055,0.172-4.383,2.227-5.203
		l39.999-15.999c2.039-0.836,4.375,0.18,5.195,2.234c0.82,2.046-0.172,4.374-2.227,5.194l-39.999,16
		C85.004,383.91,84.497,384.004,84.004,384.004z"/>
	<path style="fill:#3A3847;" d="M84.004,504c-2.211,0-4-1.789-4-4V380.004c0-2.211,1.789-4,4-4s4,1.789,4,4V500
		C88.004,502.211,86.215,504,84.004,504z"/>
	<path style="fill:#3A3847;" d="M387.995,504.75c-2.211,0-4-1.789-4-4V364.004c0-2.21,1.789-3.999,4-3.999s4,1.789,4,3.999V500.75
		C391.995,502.961,390.206,504.75,387.995,504.75z"/>
	<path style="fill:#3A3847;" d="M427.993,384.004c-0.492,0-1-0.094-1.484-0.289l-39.998-16c-2.055-0.82-3.047-3.148-2.227-5.194
		c0.82-2.055,3.148-3.062,5.195-2.234l39.998,15.999c2.055,0.82,3.047,3.148,2.227,5.203
		C431.079,383.051,429.579,384.004,427.993,384.004z"/>
	<path style="fill:#3A3847;" d="M427.993,504c-2.211,0-4-1.789-4-4V380.004c0-2.211,1.789-4,4-4s4,1.789,4,4V500
		C431.993,502.211,430.204,504,427.993,504z"/>
	<path style="fill:#3A3847;" d="M148.002,344.005h-47.999c-2.211,0-4-1.789-4-4c0-2.21,1.789-3.999,4-3.999h47.999
		c2.211,0,4,1.789,4,3.999C152.002,342.216,150.213,344.005,148.002,344.005z"/>
	<path style="fill:#3A3847;" d="M68.005,391.004c-2.211,0-4-1.789-4-4v-15c0-2.211,1.789-4,4-4c2.21,0,4,1.789,4,4v15
		C72.004,389.215,70.215,391.004,68.005,391.004z"/>
	<path style="fill:#3A3847;" d="M68.005,376.004c-2.211,0-4-1.789-4-4c0-19.851,16.148-35.998,35.999-35.998c2.21,0,4,1.789,4,3.999
		c0,2.211-1.789,4-4,4c-15.437,0-28,12.562-28,27.999C72.004,374.215,70.215,376.004,68.005,376.004z"/>
	<path style="fill:#3A3847;" d="M411.995,344.005h-48c-2.211,0-4-1.789-4-4c0-2.21,1.789-3.999,4-3.999h48c2.211,0,4,1.789,4,3.999
		C415.995,342.216,414.206,344.005,411.995,344.005z"/>
	<path style="fill:#3A3847;" d="M443.993,391.004c-2.211,0-4-1.789-4-4v-15c0-2.211,1.789-4,4-4s4,1.789,4,4v15
		C447.993,389.215,446.204,391.004,443.993,391.004z"/>
	<path style="fill:#3A3847;" d="M443.993,376.004c-2.211,0-4-1.789-4-4c0-15.437-12.562-27.999-27.998-27.999c-2.211,0-4-1.789-4-4
		c0-2.21,1.789-3.999,4-3.999c19.85,0,35.998,16.147,35.998,35.998C447.993,374.215,446.204,376.004,443.993,376.004z"/>
</g>
<g>
</g>
<g>
</g>
<g>
</g>
<g>
</g>
<g>
</g>
<g>
</g>
<g>
</g>
<g>
</g>
<g>
</g>
<g>
</g>
<g>
</g>
<g>
</g>
<g>
</g>
<g>
</g>
<g>
</g>
</svg>
