<?xml version="1.0" encoding="iso-8859-1"?>
<!-- Generator: Adobe Illustrator 19.0.0, SVG Export Plug-In . SVG Version: 6.00 Build 0)  -->
<svg version="1.1" id="Layer_1" xmlns="http://www.w3.org/2000/svg" xmlns:xlink="http://www.w3.org/1999/xlink" x="0px" y="0px"
	 viewBox="0 0 512 512" style="enable-background:new 0 0 512 512;" xml:space="preserve">
<polygon style="fill:#4FC2E9;" points="120,138 180,351 437,351 498,138 "/>
<g>
	<path style="fill:#434A54;" d="M245.914,425.453c0,16.547-13.414,29.953-29.961,29.953C199.414,455.406,186,442,186,425.453
		s13.414-29.953,29.953-29.953C232.5,395.5,245.914,408.906,245.914,425.453z"/>
	<path style="fill:#434A54;" d="M413.969,425.453c0,16.547-13.422,29.953-29.969,29.953c-16.531,0-29.953-13.406-29.953-29.953
		S367.469,395.5,384,395.5C400.547,395.5,413.969,408.906,413.969,425.453z"/>
</g>
<path d="M448,384H181.336c-5.883,0-10.672-4.781-10.672-10.656c0-5.891,4.789-10.688,10.672-10.688H448L512,128H128.844
	l-18.18-66.812l-0.008,0.016c-1.125-4.141-4.664-7.266-9.023-7.797L11.93,42.75h-0.008c-0.406-0.062-0.828-0.094-1.258-0.094
	C4.773,42.656,0,47.438,0,53.344c0,5.453,4.109,9.953,9.406,10.578l82.562,9.828l73.953,271.531
	c-9.883,5.438-16.586,15.969-16.586,28.062c0,16.062,11.828,29.344,27.258,31.641c-3.766,6.359-5.93,13.766-5.93,21.672
	c0,23.562,19.102,42.688,42.672,42.688c23.562,0,42.664-19.125,42.664-42.688c0-7.766-2.094-15.047-5.719-21.312h96.781
	c-3.641,6.266-5.719,13.547-5.719,21.312c0,23.562,19.094,42.688,42.656,42.688s42.656-19.125,42.656-42.688
	c0-7.766-2.078-15.047-5.719-21.312H448c5.891,0,10.656-4.781,10.656-10.688C458.656,388.781,453.891,384,448,384z M298.656,341.344
	h-49.469l-8-53.344h57.469V341.344z M298.656,266.656h-60.672l-8-53.312h68.672V266.656z M422.047,149.344h62.016L472.438,192
	h-56.797L422.047,149.344z M412.438,213.344h54.188l-14.562,53.312h-47.625L412.438,213.344z M446.25,288l-14.547,53.344H393.25
	l8-53.344H446.25z M320,149.344h80.469L394.062,192H320V149.344z M320,213.344h70.875l-8,53.312H320V213.344z M320,288h59.672
	l-8,53.344H320V288z M298.656,149.344V192h-71.867l-6.406-42.656H298.656z M227.617,341.344h-40.656L172.414,288h47.203
	L227.617,341.344z M198.812,149.344L205.211,192h-58.977l-11.641-42.656H198.812z M152.055,213.344h56.359l8,53.312h-49.82
	L152.055,213.344z M213.336,448C201.57,448,192,438.438,192,426.656c0-11.75,9.57-21.312,21.336-21.312
	c11.758,0,21.328,9.562,21.328,21.312C234.664,438.438,225.094,448,213.336,448z M384,448c-11.766,0-21.344-9.562-21.344-21.344
	c0-11.75,9.578-21.312,21.344-21.312s21.344,9.562,21.344,21.312C405.344,438.438,395.766,448,384,448z"/>
<path d="M384,437.344c5.891,0,10.656-4.781,10.656-10.688c0-5.875-4.766-10.656-10.656-10.656s-10.656,4.781-10.656,10.656
	C373.344,432.562,378.109,437.344,384,437.344z"/>
<path d="M213.336,437.344c5.891,0,10.664-4.781,10.664-10.688c0-5.875-4.773-10.656-10.664-10.656s-10.672,4.781-10.672,10.656
	C202.664,432.562,207.445,437.344,213.336,437.344z"/>
<g>
</g>
<g>
</g>
<g>
</g>
<g>
</g>
<g>
</g>
<g>
</g>
<g>
</g>
<g>
</g>
<g>
</g>
<g>
</g>
<g>
</g>
<g>
</g>
<g>
</g>
<g>
</g>
<g>
</g>
</svg>
