<svg id="icons" enable-background="new 0 0 64 64" height="512" viewBox="0 0 64 64" width="512" xmlns="http://www.w3.org/2000/svg"><path d="m44 5h-24c-2.76 0-5 2.24-5 5v1 44.002 2c0 3.3 2.7 6 6 6h11 11c3.3 0 6-2.7 6-6v-2-44.002-1c0-2.76-2.24-5-5-5z" fill="#545c66"/><path d="m44 .998h-24c-2.76 0-5 2.24-5 5v1 44 2c0 3.3 2.7 6 6 6h11 11c3.3 0 6-2.7 6-6v-2-44-1c0-2.76-2.24-5-5-5z" fill="#656d78"/><path d="m15 6.998h34v44h-34z" fill="#e6e9ed"/><path d="m32 52.998c1.1 0 2 .9 2 2 0 1.11-.9 2-2 2s-2-.89-2-2c0-1.1.9-2 2-2z" fill="#aab2bd"/><path d="m32 19.999c2.13 0 3.86 1.66 3.99 3.75-1.13.79-2.5 1.25-3.99 1.25s-2.86-.46-3.99-1.25c.13-2.09 1.87-3.75 3.99-3.75z" fill="#5d9cec"/><path d="m32 19.999c-1.1 0-2-.9-2-2s.9-2 2-2 2 .9 2 2-.9 2-2 2z" fill="#eac6bb"/><path d="m30 17.999c0 1.1.9 2 2 2-2.12 0-3.86 1.66-3.99 3.75-1.819-1.26-3.01-3.36-3.01-5.75 0-3.87 3.13-7 7-7s7 3.13 7 7c0 2.39-1.19 4.49-3.01 5.75-.13-2.09-1.86-3.75-3.99-3.75 1.1 0 2-.9 2-2s-.9-2-2-2-2 .9-2 2z" fill="#656d78"/><path d="m43 60h-22c-3.859 0-7-3.141-7-7 0-.553.447-1 1-1s1 .447 1 1c0 2.757 2.243 5 5 5h22c2.757 0 5-2.243 5-5 0-.553.447-1 1-1s1 .447 1 1c0 3.859-3.141 7-7 7z"/><path d="m29.03 5c-.553 0-1.005-.447-1.005-1s.442-1 .994-1h.011c.552 0 1 .447 1 1s-.448 1-1 1z"/><path d="m35 5h-3c-.553 0-1-.447-1-1s.447-1 1-1h3c.553 0 1 .447 1 1s-.447 1-1 1z"/><path d="m49 7.002c-.553 0-1-.447-1-1 0-2.206-1.794-4-4-4-.553 0-1-.447-1-1s.447-1 1-1c3.309 0 6 2.691 6 6 0 .553-.447 1-1 1z"/><path d="m15 7c-.553 0-1-.447-1-1 0-3.309 2.691-6 6-6 .553 0 1 .447 1 1s-.447 1-1 1c-2.206 0-4 1.794-4 4 0 .553-.447 1-1 1z"/><path d="m44 2h-24c-.553 0-1-.447-1-1s.447-1 1-1h24c.553 0 1 .447 1 1s-.447 1-1 1z"/><path d="m49 8.002h-34c-.553 0-1-.447-1-1s.447-1 1-1h34c.553 0 1 .447 1 1s-.447 1-1 1z"/><path d="m43 64h-22c-3.859 0-7-3.141-7-7v-51c0-.553.447-1 1-1s1 .447 1 1v51c0 2.757 2.243 5 5 5h22c2.757 0 5-2.243 5-5v-50.998c0-.553.447-1 1-1s1 .447 1 1v50.998c0 3.859-3.141 7-7 7z"/><path d="m49 52h-34c-.553 0-1-.447-1-1s.447-1 1-1h34c.553 0 1 .447 1 1s-.447 1-1 1z"/><path d="m32 58c-1.654 0-3-1.346-3-3s1.346-3 3-3 3 1.346 3 3-1.346 3-3 3zm0-4c-.552 0-1 .448-1 1s.448 1 1 1 1-.448 1-1-.448-1-1-1z"/><path d="m32 25.999c-4.411 0-8-3.589-8-8s3.589-8 8-8 8 3.589 8 8-3.589 8-8 8zm0-14c-3.309 0-6 2.691-6 6s2.691 6 6 6 6-2.691 6-6-2.691-6-6-6z"/><path d="m32 20.999c-1.654 0-3-1.346-3-3s1.346-3 3-3 3 1.346 3 3-1.346 3-3 3zm0-4c-.552 0-1 .448-1 1s.448 1 1 1 1-.448 1-1-.448-1-1-1z"/><path d="m35.992 24.749c-.524 0-.965-.408-.997-.938-.098-1.576-1.412-2.812-2.994-2.812s-2.896 1.235-2.994 2.812c-.033.551-.504.964-1.06.937-.551-.034-.971-.508-.937-1.06.162-2.629 2.354-4.688 4.99-4.688s4.828 2.06 4.99 4.688c.034.552-.386 1.025-.937 1.06-.019 0-.04.001-.061.001z"/><path d="m38 30h-12c-.553 0-1-.447-1-1s.447-1 1-1h12c.553 0 1 .447 1 1s-.447 1-1 1z"/><path d="m32.007 40.001h-13.007c-.553 0-1-.447-1-1s.447-1 1-1h13.007c.553 0 1 .447 1 1s-.447 1-1 1z"/><path d="m27.002 44.001h-8.002c-.553 0-1-.447-1-1s.447-1 1-1h8.002c.553 0 1 .447 1 1s-.447 1-1 1z"/><path d="m30.005 48.001h-11.005c-.553 0-1-.447-1-1s.447-1 1-1h11.005c.553 0 1 .447 1 1s-.447 1-1 1z"/><path d="m45 40.001h-4.999c-.553 0-1-.447-1-1s.447-1 1-1h4.999c.553 0 1 .447 1 1s-.447 1-1 1z"/><path d="m45 44.001h-4.999c-.553 0-1-.447-1-1s.447-1 1-1h4.999c.553 0 1 .447 1 1s-.447 1-1 1z"/><path d="m45 48.001h-4.999c-.553 0-1-.447-1-1s.447-1 1-1h4.999c.553 0 1 .447 1 1s-.447 1-1 1z"/><path d="m45 34.999h-26c-.553 0-1-.447-1-1s.447-1 1-1h26c.553 0 1 .447 1 1s-.447 1-1 1z"/><path d="m45.03 30c-.553 0-1.005-.447-1.005-1s.442-1 .994-1h.011c.552 0 1 .447 1 1s-.448 1-1 1z"/><path d="m42.03 30c-.553 0-1.005-.447-1.005-1s.442-1 .994-1h.011c.552 0 1 .447 1 1s-.448 1-1 1z"/><path d="m19.03 30c-.553 0-1.005-.447-1.005-1s.442-1 .994-1h.011c.552 0 1 .447 1 1s-.448 1-1 1z"/><path d="m22.03 30c-.553 0-1.005-.447-1.005-1s.442-1 .994-1h.011c.552 0 1 .447 1 1s-.448 1-1 1z"/></svg>