<?xml version="1.0" encoding="iso-8859-1"?>
<!-- Generator: Adobe Illustrator 19.0.0, SVG Export Plug-In . SVG Version: 6.00 Build 0)  -->
<svg version="1.1" id="Capa_1" xmlns="http://www.w3.org/2000/svg" xmlns:xlink="http://www.w3.org/1999/xlink" x="0px" y="0px"
	 viewBox="0 0 511.968 511.968" style="enable-background:new 0 0 511.968 511.968;" xml:space="preserve">
<path style="fill:#656D78;" d="M411.975,159.99C411.975,73.832,342.143,4,255.985,4c-86.159,0-155.99,69.832-155.99,155.99
	c0,0,7.999,123.992-39.998,155.99c0,0,39.998,31.998,103.994,31.998h183.988c63.996,0,103.994-31.998,103.994-31.998
	C403.976,283.982,411.975,159.99,411.975,159.99z"/>
<g style="opacity:0.3;">
	<path style="fill:#FFFFFF;" d="M115.994,159.99c0-83.46,65.574-151.396,147.99-155.588C261.317,4.269,258.684,4,255.985,4
		c-86.159,0-155.99,69.832-155.99,155.99c0,0,7.999,123.992-39.998,155.99l12.077,7.905
		C125.743,286.982,115.994,159.99,115.994,159.99z"/>
</g>
<g style="opacity:0.2;">
	<path d="M395.976,159.99c0-83.46-65.573-151.396-147.991-155.588c2.672-0.133,5.296-0.402,8-0.402
		c86.158,0,155.99,69.832,155.99,155.99c0,0-7.999,123.992,39.998,155.99l-12.078,7.905
		C386.227,286.982,395.976,159.99,395.976,159.99z"/>
</g>
<path style="fill:#EAC6BB;" d="M475.971,459.97c0,31.999,0,47.998,0,47.998h-71.995V396.053c9.038,2.882,17.357,5.438,23.998,7.922
	C459.972,415.974,475.971,427.973,475.971,459.97z"/>
<path style="fill:#656D78;" d="M255.985,4c48.075,0,91.111,21.761,119.75,55.997c0,0-19.279,29.357-67.753,59.194
	c-43.356,26.722-110.154,53.837-207.507,60.478c0-11.999-0.48-19.679-0.48-19.679C99.995,73.836,169.83,4,255.985,4z"/>
<g style="opacity:0.2;">
	<path style="fill:#FFFFFF;" d="M255.985,4c48.075,0,91.111,21.761,119.75,55.997c0,0-19.279,29.357-67.753,59.194
		c-43.356,26.722-110.154,53.837-207.507,60.478c0-11.999-0.48-19.679-0.48-19.679C99.995,73.836,169.83,4,255.985,4z"/>
</g>
<g style="opacity:0.3;">
	<path style="fill:#FFFFFF;" d="M115.994,159.99c0-84.033,66.488-152.35,149.702-155.674C262.485,4.121,259.251,4,255.985,4
		C169.83,4,99.995,73.836,99.995,159.99c0,0,0.48,7.68,0.48,19.679c5.437-0.371,10.745-0.828,15.991-1.32
		C116.435,167.134,115.994,159.99,115.994,159.99z"/>
</g>
<path style="fill:#656D78;" d="M411.733,164.228c-54.23-4.238-103.751-45.037-103.751-45.037
	c48.474-29.837,67.753-59.194,67.753-59.194c22.64,27.119,36.24,61.917,36.24,99.993
	C411.975,159.99,411.897,161.509,411.733,164.228z"/>
<g style="opacity:0.2;">
	<path d="M375.735,59.997C347.096,25.76,304.06,4,255.985,4c-2.121,0-4.187,0.234-6.289,0.316
		c44.139,2.715,83.347,23.768,110.041,55.681c22.639,27.119,36.239,61.917,36.239,99.993c0,0-0.038,0.703-0.108,1.902
		c5.225,1.059,10.506,1.918,15.865,2.336c0.164-2.719,0.242-4.238,0.242-4.238C411.975,121.914,398.375,87.116,375.735,59.997z"/>
</g>
<path style="fill:#EAC6BB;" d="M307.982,119.191c0,0,40.294,33.201,87.994,42.811v17.987c0,53.035-29.115,103.759-63.996,136.952
	c-25.279,24.076-53.598,39.036-75.995,39.036s-50.716-14.874-75.995-39.036c-31.358-29.835-58.075-73.835-63.118-120.953v-17.655
	C205.957,170.032,266.945,144.483,307.982,119.191z"/>
<g style="opacity:0.2;">
	<path d="M379.977,158.045v21.944c0,53.035-29.115,103.759-63.995,136.952c-22.366,21.304-47.1,35.42-68.016,38.396
		c2.737,0.391,5.425,0.641,8.019,0.641c22.397,0,50.716-14.96,75.995-39.036c34.881-33.193,63.996-83.917,63.996-136.952v-17.987
		L379.977,158.045z"/>
</g>
<g style="opacity:0.5;">
	<path style="fill:#FFFFFF;" d="M195.989,316.941c-31.358-29.835-58.075-73.835-63.118-120.953v-19.413l-15.999,1.758v17.655
		c5.043,47.118,31.76,91.118,63.118,120.953c25.279,24.162,53.598,39.036,75.995,39.036c2.578,0,5.258-0.25,7.98-0.641
		C243.056,352.361,218.343,338.306,195.989,316.941z"/>
</g>
<path style="fill:#EAC6BB;" d="M331.98,339.979c0,3.765,0.563,7.28,1.68,10.562c4.163,12.874,15.999,22.396,30.318,29.834
	c0,0,0,0,0,0.086c-0.398,2.796-10.32,63.512-107.595,63.512c-99.514,0-108.392-63.598-108.392-63.598
	c13.12-6.796,24.077-15.358,29.12-26.631c1.84-4.164,2.879-8.804,2.879-13.765v-23.038c25.279,24.162,53.598,39.036,75.995,39.036
	s50.716-14.96,75.995-39.036L331.98,339.979L331.98,339.979z"/>
<g style="opacity:0.2;">
	<path d="M331.98,316.941c-25.279,24.076-53.598,39.036-75.995,39.036s-50.716-14.874-75.995-39.036v8
		c25.279,24.162,53.598,39.036,75.995,39.036s50.716-14.96,75.995-39.036V316.941z"/>
</g>
<g style="opacity:0.5;">
	<path style="fill:#FFFFFF;" d="M179.99,324.941v15.038c0,4.961-1.039,9.601-2.879,13.765c-5.042,11.272-16,19.835-29.12,26.631
		l5.566,15.679c13.12-6.797,34.51-23.038,39.552-34.311c1.84-4.164,2.879-8.804,2.879-13.765v-9.406
		C190.583,334.417,185.216,329.932,179.99,324.941z"/>
</g>
<g style="opacity:0.2;">
	<path d="M331.98,324.941v15.038c0,4.961,1.039,9.601,2.875,13.765c5.047,11.272,15.999,19.835,29.123,26.631l-5.562,15.679
		c-13.124-6.797-34.514-23.038-39.561-34.311c-1.836-4.164-2.874-8.804-2.874-13.765v-9.406
		C321.387,334.417,326.754,329.932,331.98,324.941z"/>
</g>
<path style="fill:#EAC6BB;" d="M108.154,396.053l-0.16,111.915H35.998c0,0,0-15.999,0-47.998c0-31.997,15.999-43.996,47.998-55.995
	C90.636,401.491,99.034,398.935,108.154,396.053z"/>
<g style="opacity:0.5;">
	<path style="fill:#FFFFFF;" d="M51.997,472.298c0-31.998,15.999-43.998,47.998-55.996c2.464-0.922,5.238-1.859,8.136-2.813
		l0.023-17.437c-9.12,2.882-17.518,5.438-24.158,7.922c-31.999,11.999-47.998,23.998-47.998,55.995c0,31.999,0,47.998,0,47.998
		h15.999C51.997,499.969,51.997,488.111,51.997,472.298z"/>
</g>
<g style="opacity:0.2;">
	<path d="M460.05,472.298c0-31.998-15.999-43.998-47.997-55.996c-2.469-0.922-5.234-1.859-8.141-2.813l-0.015-17.437
		c9.116,2.882,17.515,5.438,24.154,7.922c31.998,11.999,47.997,23.998,47.997,55.995c0,31.999,0,47.998,0,47.998h-15.999
		C460.05,499.969,460.05,488.111,460.05,472.298z"/>
</g>
<path style="fill:#A0D468;" d="M403.976,396.053v111.915H107.994l0.16-111.915c12.96-4.234,27.358-9.117,39.837-15.679
	c0,0,8.878,63.598,108.392,63.598c97.274,0,107.196-60.716,107.595-63.512C376.54,386.936,390.938,391.897,403.976,396.053z"/>
<g style="opacity:0.2;">
	<path d="M256.383,443.972c97.274,0,107.196-60.716,107.595-63.512c0-0.086,0-0.086,0-0.086c-0.601-0.313-1.164-0.648-1.758-0.969
		c-5.476,16.562-26.872,56.566-105.837,56.566c-79.058,0-100.893-40.106-106.537-56.613c-0.621,0.336-1.222,0.688-1.855,1.016
		C147.991,380.375,156.87,443.972,256.383,443.972z"/>
</g>
<g style="opacity:0.5;">
	<path style="fill:#FFFFFF;" d="M108.154,413.349c12.354-4.039,33.975-11.265,46.037-17.374c-5.172-9.601-6.199-15.601-6.199-15.601
		c-12.479,6.562-26.877,11.444-39.837,15.679L108.154,413.349L108.154,413.349z"/>
</g>
<g>
	<path style="fill:#3A3847;" d="M255.985,359.977c-23.014,0-52.454-15.007-78.757-40.146
		c-35.639-33.912-59.692-80.05-64.332-123.418c-0.234-2.195,1.355-4.168,3.55-4.402c2.238-0.195,4.172,1.359,4.402,3.551
		c4.445,41.54,27.584,85.826,61.899,118.48c24.858,23.757,52.235,37.936,73.238,37.936c20.921,0,48.294-14.179,73.238-37.936
		c39.294-37.396,62.754-87.51,62.754-134.054c0-2.211,1.788-4,3.999-4c2.212,0,4,1.789,4,4c0,48.692-24.389,100.971-65.238,139.851
		C308.349,344.97,278.905,359.977,255.985,359.977z"/>
	<path style="fill:#3A3847;" d="M475.971,511.968H35.998c-2.21,0-4-1.789-4-4V459.97c0-34.271,17.78-47.435,50.591-59.745
		c5.617-2.095,12.499-4.25,19.784-6.547l4.574-1.438c13.21-4.319,27.15-9.077,39.181-15.405c14.261-7.39,23.19-15.468,27.33-24.732
		c1.676-3.789,2.531-7.875,2.531-12.124c0-2.211,1.789-4,4-4s4,1.789,4,4c0,5.374-1.082,10.546-3.223,15.374
		c-4.913,10.998-15.03,20.334-30.936,28.576c-12.562,6.602-26.862,11.483-40.435,15.921l-4.625,1.46
		c-7.183,2.259-13.964,4.391-19.378,6.414c-30.756,11.531-45.396,22.296-45.396,52.246v43.998H471.97V459.97
		c0-29.95-14.641-40.715-45.404-52.246c-5.421-2.031-11.976-4.108-19.131-6.374l-4.68-1.484
		c-12.789-4.078-27.624-9.155-40.614-15.859c-1.961-1.007-2.735-3.421-1.72-5.382c1.008-1.969,3.43-2.734,5.391-1.727
		c12.469,6.438,26.896,11.367,39.373,15.343l4.671,1.485c7.297,2.312,13.984,4.437,19.515,6.499
		c32.818,12.311,50.599,25.475,50.599,59.745v47.998C479.971,510.179,478.182,511.968,475.971,511.968z"/>
	<path style="fill:#3A3847;" d="M363.978,384.375c-0.625,0-1.258-0.148-1.844-0.445c-17.702-9.203-28.256-19.718-32.279-32.163
		c-1.234-3.624-1.875-7.615-1.875-11.787c0-2.211,1.789-4,4-4s4,1.789,4,4c0,3.297,0.492,6.413,1.469,9.265
		c3.358,10.405,12.632,19.405,28.373,27.577c1.961,1.022,2.727,3.437,1.703,5.397C366.814,383.586,365.423,384.375,363.978,384.375z
		"/>
	<path style="fill:#3A3847;" d="M179.99,343.978c-2.211,0-4-1.788-4-3.999v-23.038c0-2.211,1.789-4,4-4s4,1.789,4,4v23.038
		C183.989,342.19,182.201,343.978,179.99,343.978z"/>
	<path style="fill:#3A3847;" d="M331.98,343.978c-2.211,0-4-1.788-4-3.999v-23.038c0-2.211,1.789-4,4-4s4,1.789,4,4v23.038
		C335.98,342.19,334.191,343.978,331.98,343.978z"/>
	<path style="fill:#3A3847;" d="M411.975,163.99c-2.211,0-4-1.789-4-4c0-35.553-12.537-70.156-35.31-97.432
		C343.659,27.888,301.131,8,255.985,8c-83.807,0-151.991,68.183-151.991,151.99c0,2.211-1.789,4-4,4s-4-1.789-4-4
		C95.994,71.772,167.767,0,255.984,0c47.521,0,92.291,20.933,122.82,57.431c23.968,28.716,37.17,65.136,37.17,102.56
		C415.975,162.201,414.186,163.99,411.975,163.99z"/>
	<path style="fill:#3A3847;" d="M451.973,319.98c-0.766,0-1.539-0.219-2.219-0.672c-36.764-24.514-42.256-97.908-42.256-139.479
		c0-5.82,0.117-10.691,0.195-14.144l0.289-5.902c0.109-2.195,1.759-3.918,4.195-3.789c2.211,0.113,3.906,1.996,3.789,4.203
		l-0.273,5.68c-0.078,3.405-0.195,8.21-0.195,13.952c0,32.182,3.773,109.544,38.693,132.823c1.836,1.227,2.336,3.703,1.108,5.547
		C454.528,319.355,453.262,319.98,451.973,319.98z"/>
	<path style="fill:#3A3847;" d="M347.979,351.978c-2.211,0-4-1.789-4-4s1.789-4,4-4c61.724,0,101.111-30.811,101.502-31.123
		c1.734-1.39,4.242-1.094,5.617,0.625c1.375,1.734,1.093,4.25-0.625,5.625C452.794,320.449,412.631,351.978,347.979,351.978z"/>
	<path style="fill:#3A3847;" d="M60.001,319.98c-1.292,0-2.563-0.625-3.332-1.781c-1.227-1.844-0.731-4.32,1.109-5.547
		c30.463-20.312,37.17-82.303,38.458-117.449c0.156-5.605,0.238-10.929,0.238-15.534c0-11.715-0.469-19.354-0.473-19.429
		c-0.137-2.207,1.539-4.105,3.742-4.242c2.289-0.121,4.101,1.539,4.242,3.742c0.02,0.32,0.488,7.941,0.488,19.929
		c0,4.676-0.082,10.069-0.242,15.792c-1.641,44.833-10.261,102.677-42.017,123.848C61.532,319.761,60.763,319.98,60.001,319.98z"/>
	<path style="fill:#3A3847;" d="M163.991,351.978c-64.656,0-104.814-31.529-106.494-32.873c-1.723-1.375-2-3.891-0.625-5.625
		c1.379-1.719,3.891-2,5.621-0.625c0.39,0.313,39.778,31.123,101.498,31.123c2.21,0,4,1.789,4,4S166.201,351.978,163.991,351.978z"
		/>
	<path style="fill:#3A3847;" d="M100.471,183.668c-2.085,0-3.843-1.616-3.987-3.726c-0.149-2.207,1.515-4.113,3.718-4.266
		c80.956-5.52,150.159-25.67,205.679-59.891c47.021-28.939,66.323-57.704,66.512-57.989c1.219-1.855,3.71-2.351,5.538-1.14
		c1.844,1.215,2.359,3.69,1.148,5.534c-0.805,1.23-20.326,30.447-69.004,60.406c-56.633,34.904-127.062,55.45-209.326,61.063
		C100.655,183.664,100.561,183.668,100.471,183.668z"/>
	<path style="fill:#3A3847;" d="M411.741,168.227c-0.108,0-0.211-0.003-0.32-0.011c-54.855-4.289-103.923-44.24-105.985-45.939
		c-1.703-1.401-1.945-3.921-0.539-5.628c1.406-1.711,3.93-1.934,5.625-0.547c0.491,0.402,49.223,40.052,101.524,44.138
		c2.203,0.172,3.844,2.098,3.672,4.301C415.553,166.634,413.803,168.227,411.741,168.227z"/>
	<path style="fill:#3A3847;" d="M256.383,447.972c-101.814,0-112.259-66.371-112.353-67.043c-0.305-2.188,1.215-4.195,3.395-4.508
		c2.171-0.336,4.203,1.211,4.527,3.383c0.359,2.461,9.871,60.168,104.431,60.168c94.01,0,103.283-57.621,103.635-60.074
		c0-2.218,1.772-3.766,3.983-3.766c2.203,0,3.977,2.031,3.977,4.242C367.548,383.756,357.253,447.972,256.383,447.972z"/>
	<path style="fill:#3A3847;" d="M403.976,511.968c-2.211,0-4-1.789-4-4V396.053c0-2.211,1.789-4,4-4s3.999,1.789,3.999,4v111.915
		C407.975,510.179,406.187,511.968,403.976,511.968z"/>
	<path style="fill:#3A3847;" d="M107.994,511.968c-0.004,0-0.004,0-0.004,0c-2.211,0-3.999-1.797-3.996-4l0.16-111.915
		c0.004-2.211,1.793-4.038,4-4.038c0,0,0,0,0.004,0c2.207,0,3.996,1.757,3.996,3.96l-0.16,111.993
		C111.99,510.179,110.201,511.968,107.994,511.968z"/>
</g>
<g>
</g>
<g>
</g>
<g>
</g>
<g>
</g>
<g>
</g>
<g>
</g>
<g>
</g>
<g>
</g>
<g>
</g>
<g>
</g>
<g>
</g>
<g>
</g>
<g>
</g>
<g>
</g>
<g>
</g>
</svg>
