<?xml version="1.0" encoding="iso-8859-1"?>
<!-- Generator: Adobe Illustrator 19.0.0, SVG Export Plug-In . SVG Version: 6.00 Build 0)  -->
<svg version="1.1" id="Layer_1" xmlns="http://www.w3.org/2000/svg" xmlns:xlink="http://www.w3.org/1999/xlink" x="0px" y="0px"
	 viewBox="0 0 512.002 512.002" style="enable-background:new 0 0 512.002 512.002;" xml:space="preserve">
<polygon style="fill:#FECD57;" points="294,298.001 202,287.001 157,195.001 120,283.001 26,300.001 93,362.001 73,452.001 
	86,452.001 157,413.001 236,441.001 225.5,370.001 "/>
<path d="M274.719,213.212c21.672-14.641,44.828-27.211,68.844-37.367c49.969-21.133,103.047-31.852,157.766-31.852
	c5.891,0,10.672-4.773,10.672-10.664s-4.781-10.664-10.672-10.664c-120.281,0-228.953,49.781-306.516,129.867l-16.484-33.406
	c11.172-14.703,23.344-28.695,36.391-41.742c18.344-18.352,38.531-35.008,60-49.508c21.672-14.641,44.828-27.211,68.844-37.367
	c49.969-21.133,103.047-31.844,157.766-31.844c5.891,0,10.672-4.781,10.672-10.672s-4.781-10.664-10.672-10.664
	c-134.984,0-255.313,62.688-333.5,160.531l-10.797-21.891L108.5,274.298L0,290.064l78.516,76.531L59.984,474.673l97.047-51.031
	l97.047,51.031l-18.531-108.078l78.516-76.531l-21.188-3.078c16.281-9.781,33.266-18.438,50.688-25.813
	c49.969-21.133,103.047-31.844,157.766-31.844c5.891,0,10.672-4.773,10.672-10.664s-4.781-10.672-10.672-10.672
	c-89.266,0-172.141,27.43-240.656,74.305l-55.109-8l-0.688-1.375c3.234-3.469,6.5-6.875,9.844-10.219
	C233.063,244.36,253.25,227.712,274.719,213.212z M268.219,304.954l-55.594,54.188l13.125,76.531l-68.719-36.125l-68.719,36.125
	l13.125-76.531l-55.594-54.188l76.828-11.156l34.359-69.617l34.359,69.617L268.219,304.954z"/>
<g>
</g>
<g>
</g>
<g>
</g>
<g>
</g>
<g>
</g>
<g>
</g>
<g>
</g>
<g>
</g>
<g>
</g>
<g>
</g>
<g>
</g>
<g>
</g>
<g>
</g>
<g>
</g>
<g>
</g>
</svg>
