<?xml version="1.0" encoding="iso-8859-1"?>
<!-- Generator: Adobe Illustrator 19.0.0, SVG Export Plug-In . SVG Version: 6.00 Build 0)  -->
<svg version="1.1" id="Capa_1" xmlns="http://www.w3.org/2000/svg" xmlns:xlink="http://www.w3.org/1999/xlink" x="0px" y="0px"
	 viewBox="0 0 511.968 511.968" style="enable-background:new 0 0 511.968 511.968;" xml:space="preserve">
<g>
	<path style="fill:#F6BB42;" d="M255.983,117.829c43.13,27.209,97.15,38.748,155.99,50.879l-16.437,165.225l-15.562-1.953
		l-9.437-47.997l-7.047-4.719c-30.076,45.357-75.026,76.714-107.509,76.714V117.829H255.983z"/>
	<polygon style="fill:#F6BB42;" points="387.975,379.976 399.537,345.581 376.538,345.581 	"/>
	<path style="fill:#F6BB42;" d="M255.983,117.829c-43.13,27.209-97.154,54.028-155.99,66.16l16.44,149.943l15.557-1.953
		l9.441-47.997l7.038-4.719c30.077,45.357,75.035,76.714,107.514,76.714V117.829z"/>
</g>
<g>
	<polygon style="fill:#ED5565;" points="123.928,328.456 91.993,320.456 91.993,352.455 123.928,344.455 155.864,352.455 
		155.864,320.456 	"/>
	<polygon style="fill:#ED5565;" points="388.037,328.456 356.102,320.456 356.102,352.455 388.037,344.455 419.973,352.455 
		419.973,320.456 	"/>
</g>
<polygon style="fill:#F6BB42;" points="123.991,379.976 112.429,345.581 135.431,345.581 "/>
<path style="fill:#EC87C0;" d="M419.973,403.975c-9.031-3.359-21.358-6.883-34.077-11.203c0,0-30.763-10.437-45.841-22.553
	l-11.795-11.008h-72.277h-72.277l-11.796,11.008c-15.077,12.116-45.841,22.553-45.841,22.553
	c-12.718,4.32-25.038,7.844-34.076,11.203c-31.998,11.999-47.997,23.998-47.997,55.995c0,31.999,0,47.998,0,47.998h211.987H467.97
	c0,0,0-15.999,0-47.998C467.97,427.973,451.971,415.974,419.973,403.975z"/>
<g style="opacity:0.2;">
	<path d="M256.069,395.975c43.997,0,51.997-23.999,51.997-23.999c13.874,0,20.92-3.882,24.326-8.913l-4.132-3.852h-72.277h-72.277
		l-4.132,3.852c3.405,5.031,10.452,8.913,24.326,8.913c0,0,7.999,23.999,51.997,23.999c0.031,0,0.055,0,0.086,0
		S256.038,395.975,256.069,395.975z"/>
</g>
<path style="fill:#E6E9ED;" d="M332.065,331.979l-4.524-10.905l-71.558,5.288l-71.559-5.288l-4.522,10.905
	c0,0-15.999,31.998,23.998,31.998c0,0,7.999,23.999,51.997,23.999c0.031,0,0.055,0,0.086,0s0.055,0,0.086,0
	c43.997,0,51.997-23.999,51.997-23.999C348.063,363.977,332.065,331.979,332.065,331.979z"/>
<path style="fill:#FFFFFF;" d="M211.899,363.977c-39.997,0-23.998-31.998-23.998-31.998l4.285-10.335l-7.762-0.57l-4.522,10.905
	c0,0-15.999,31.998,23.998,31.998c0,0,7.999,23.999,51.997,23.999c0.031,0,0.055,0,0.086,0s0.055,0,0.086,0
	c1.375,0,2.609-0.086,3.914-0.133C219.508,386.436,211.899,363.977,211.899,363.977z"/>
<g style="opacity:0.2;">
	<path d="M299.988,363.977c39.998,0,23.998-31.998,23.998-31.998l-4.288-10.335l7.766-0.57l4.522,10.905
		c0,0,15.999,31.998-23.998,31.998c0,0-8,23.999-51.997,23.999c-0.031,0-0.055,0-0.087,0c-0.03,0-0.054,0-0.085,0
		c-1.375,0-2.609-0.086-3.914-0.133C292.379,386.436,299.988,363.977,299.988,363.977z"/>
</g>
<g style="opacity:0.4;">
	<path style="fill:#FFFFFF;" d="M179.578,363.063l-7.668,7.156c-15.077,12.116-45.841,22.553-45.841,22.553
		c-12.718,4.32-25.038,7.844-34.076,11.203c-31.998,11.999-47.997,23.998-47.997,55.995c0,31.999,0,47.998,0,47.998h15.999
		c0-7.827,0-18.366,0-31.998c0-31.998,15.999-43.997,47.997-55.996c9.038-3.359,21.358-6.883,34.076-11.203
		c0,0,30.764-10.437,45.841-22.554l15.577-14.257C189.905,371.882,182.949,368.04,179.578,363.063z"/>
</g>
<g style="opacity:0.2;">
	<path d="M419.973,403.975c-9.039-3.359-21.358-6.883-34.077-11.203c0,0-30.763-10.437-45.841-22.553l-7.663-7.156
		c-3.375,4.977-10.327,8.819-23.912,8.897l15.576,14.257c15.078,12.117,45.842,22.554,45.842,22.554
		c12.718,4.32,25.038,7.844,34.076,11.203c31.997,11.999,47.997,23.998,47.997,55.996c0,13.632,0,24.171,0,31.998h15.999
		c0,0,0-15.999,0-47.998C467.97,427.973,451.971,415.974,419.973,403.975z"/>
</g>
<path style="fill:#F6BB42;" d="M355.976,40.24c34.24,28.639,55.997,71.675,55.997,119.75v8.718h-0.156
	c-75.198-27.436-129.039-68.714-129.039-68.714C328.135,68.152,355.976,40.24,355.976,40.24z"/>
<path style="fill:#FFCE54;" d="M355.976,40.24c0,0-27.841,27.912-73.198,59.754c-46.396,32.561-111.028,69.198-182.785,83.995
	V159.99C99.993,73.839,169.828,4,255.983,4C293.981,4,328.861,17.6,355.976,40.24z"/>
<g style="opacity:0.2;">
	<path d="M355.976,40.24C328.861,17.6,293.981,4,255.983,4c-2.531,0-5,0.258-7.504,0.375c34.674,1.875,66.422,14.929,91.499,35.865
		c34.24,28.639,55.996,71.675,55.996,119.75v2.594c5.172,2.093,10.437,4.148,15.843,6.124h0.156v-8.718
		C411.973,111.915,390.216,68.879,355.976,40.24z"/>
</g>
<g style="opacity:0.5;">
	<path style="fill:#FFFFFF;" d="M115.992,159.99c0-83.62,65.839-151.67,148.49-155.615C261.655,4.227,258.845,4,255.983,4
		c-86.155,0-155.99,69.839-155.99,155.99v23.999c5.378-1.109,10.702-2.375,15.999-3.719L115.992,159.99L115.992,159.99z"/>
</g>
<g>
	<path style="fill:#3A3847;" d="M64.671,471.97c-2.207,0-4.039-1.789-4.039-4c0-2.21,1.75-4,3.961-4h0.078
		c2.211,0,3.999,1.79,3.999,4C68.67,470.181,66.881,471.97,64.671,471.97z"/>
	<path style="fill:#3A3847;" d="M88.669,495.969c-2.207,0-4.039-1.789-4.039-4s1.75-4,3.961-4h0.078c2.211,0,4,1.789,4,4
		S90.879,495.969,88.669,495.969z"/>
	<path style="fill:#3A3847;" d="M112.668,471.97c-2.207,0-4.039-1.789-4.039-4c0-2.21,1.75-4,3.96-4h0.079c2.211,0,4,1.79,4,4
		C116.668,470.181,114.879,471.97,112.668,471.97z"/>
	<path style="fill:#3A3847;" d="M136.666,495.969c-2.207,0-4.039-1.789-4.039-4s1.75-4,3.961-4h0.078c2.211,0,4,1.789,4,4
		S138.877,495.969,136.666,495.969z"/>
	<path style="fill:#3A3847;" d="M160.664,471.97c-2.206,0-4.038-1.789-4.038-4c0-2.21,1.75-4,3.961-4h0.077c2.211,0,4,1.79,4,4
		C164.664,470.181,162.875,471.97,160.664,471.97z"/>
	<path style="fill:#3A3847;" d="M184.663,495.969c-2.207,0-4.039-1.789-4.039-4s1.75-4,3.961-4h0.078c2.211,0,4,1.789,4,4
		S186.874,495.969,184.663,495.969z"/>
	<path style="fill:#3A3847;" d="M208.662,471.97c-2.207,0-4.039-1.789-4.039-4c0-2.21,1.75-4,3.961-4h0.078c2.211,0,4,1.79,4,4
		C212.662,470.181,210.873,471.97,208.662,471.97z"/>
	<path style="fill:#3A3847;" d="M232.66,495.969c-2.206,0-4.039-1.789-4.039-4s1.75-4,3.961-4h0.078c2.211,0,4,1.789,4,4
		S234.871,495.969,232.66,495.969z"/>
	<path style="fill:#3A3847;" d="M256.659,471.97c-2.207,0-4.039-1.789-4.039-4c0-2.21,1.75-4,3.961-4h0.078c2.211,0,4,1.79,4,4
		C260.659,470.181,258.87,471.97,256.659,471.97z"/>
	<path style="fill:#3A3847;" d="M280.661,495.969c-2.21,0-4.039-1.789-4.039-4s1.75-4,3.954-4h0.085c2.203,0,4,1.789,4,4
		S282.864,495.969,280.661,495.969z"/>
	<path style="fill:#3A3847;" d="M304.66,471.97c-2.211,0-4.039-1.789-4.039-4c0-2.21,1.75-4,3.953-4h0.086c2.203,0,4,1.79,4,4
		C308.66,470.181,306.863,471.97,304.66,471.97z"/>
	<path style="fill:#3A3847;" d="M328.658,495.969c-2.211,0-4.038-1.789-4.038-4s1.75-4,3.952-4h0.086c2.203,0,4,1.789,4,4
		S330.861,495.969,328.658,495.969z"/>
	<path style="fill:#3A3847;" d="M352.656,471.97c-2.21,0-4.038-1.789-4.038-4c0-2.21,1.75-4,3.953-4h0.085c2.204,0,4,1.79,4,4
		C356.656,470.181,354.86,471.97,352.656,471.97z"/>
	<path style="fill:#3A3847;" d="M376.656,495.969c-2.211,0-4.04-1.789-4.04-4s1.75-4,3.954-4h0.086c2.202,0,3.999,1.789,3.999,4
		S378.858,495.969,376.656,495.969z"/>
	<path style="fill:#3A3847;" d="M400.654,471.97c-2.211,0-4.038-1.789-4.038-4c0-2.21,1.749-4,3.952-4h0.086c2.203,0,4,1.79,4,4
		C404.654,470.181,402.857,471.97,400.654,471.97z"/>
	<path style="fill:#3A3847;" d="M424.652,495.969c-2.211,0-4.038-1.789-4.038-4s1.75-4,3.952-4h0.086c2.204,0,4,1.789,4,4
		S426.856,495.969,424.652,495.969z"/>
	<path style="fill:#3A3847;" d="M448.651,471.97c-2.211,0-4.039-1.789-4.039-4c0-2.21,1.75-4,3.953-4h0.086c2.203,0,4,1.79,4,4
		C452.651,470.181,450.854,471.97,448.651,471.97z"/>
	<path style="fill:#3A3847;" d="M64.671,423.973c-2.207,0-4.039-1.788-4.039-3.999s1.75-4,3.961-4h0.078
		c2.211,0,3.999,1.789,3.999,4S66.881,423.973,64.671,423.973z"/>
	<path style="fill:#3A3847;" d="M88.669,447.972c-2.207,0-4.039-1.789-4.039-4s1.75-4,3.961-4h0.078c2.211,0,4,1.789,4,4
		S90.879,447.972,88.669,447.972z"/>
	<path style="fill:#3A3847;" d="M112.668,423.973c-2.207,0-4.039-1.788-4.039-3.999s1.75-4,3.96-4h0.079c2.211,0,4,1.789,4,4
		S114.879,423.973,112.668,423.973z"/>
	<path style="fill:#3A3847;" d="M136.666,447.972c-2.207,0-4.039-1.789-4.039-4s1.75-4,3.961-4h0.078c2.211,0,4,1.789,4,4
		S138.877,447.972,136.666,447.972z"/>
	<path style="fill:#3A3847;" d="M160.664,423.973c-2.206,0-4.038-1.788-4.038-3.999s1.75-4,3.961-4h0.077c2.211,0,4,1.789,4,4
		S162.875,423.973,160.664,423.973z"/>
	<path style="fill:#3A3847;" d="M184.663,447.972c-2.207,0-4.039-1.789-4.039-4s1.75-4,3.961-4h0.078c2.211,0,4,1.789,4,4
		S186.874,447.972,184.663,447.972z"/>
	<path style="fill:#3A3847;" d="M208.662,423.973c-2.207,0-4.039-1.788-4.039-3.999s1.75-4,3.961-4h0.078c2.211,0,4,1.789,4,4
		S210.873,423.973,208.662,423.973z"/>
	<path style="fill:#3A3847;" d="M232.66,447.972c-2.206,0-4.039-1.789-4.039-4s1.75-4,3.961-4h0.078c2.211,0,4,1.789,4,4
		S234.871,447.972,232.66,447.972z"/>
	<path style="fill:#3A3847;" d="M256.659,423.973c-2.207,0-4.039-1.788-4.039-3.999s1.75-4,3.961-4h0.078c2.211,0,4,1.789,4,4
		S258.87,423.973,256.659,423.973z"/>
	<path style="fill:#3A3847;" d="M280.661,447.972c-2.21,0-4.039-1.789-4.039-4s1.75-4,3.954-4h0.085c2.203,0,4,1.789,4,4
		S282.864,447.972,280.661,447.972z"/>
	<path style="fill:#3A3847;" d="M304.66,423.973c-2.211,0-4.039-1.788-4.039-3.999s1.75-4,3.953-4h0.086c2.203,0,4,1.789,4,4
		S306.863,423.973,304.66,423.973z"/>
	<path style="fill:#3A3847;" d="M328.658,447.972c-2.211,0-4.038-1.789-4.038-4s1.75-4,3.952-4h0.086c2.203,0,4,1.789,4,4
		S330.861,447.972,328.658,447.972z"/>
	<path style="fill:#3A3847;" d="M352.656,423.973c-2.21,0-4.038-1.788-4.038-3.999s1.75-4,3.953-4h0.085c2.204,0,4,1.789,4,4
		S354.86,423.973,352.656,423.973z"/>
	<path style="fill:#3A3847;" d="M376.656,447.972c-2.211,0-4.04-1.789-4.04-4s1.75-4,3.954-4h0.086c2.202,0,3.999,1.789,3.999,4
		S378.858,447.972,376.656,447.972z"/>
	<path style="fill:#3A3847;" d="M400.654,423.973c-2.211,0-4.038-1.788-4.038-3.999s1.749-4,3.952-4h0.086c2.203,0,4,1.789,4,4
		S402.857,423.973,400.654,423.973z"/>
	<path style="fill:#3A3847;" d="M424.652,447.972c-2.211,0-4.038-1.789-4.038-4s1.75-4,3.952-4h0.086c2.204,0,4,1.789,4,4
		S426.856,447.972,424.652,447.972z"/>
	<path style="fill:#3A3847;" d="M448.651,423.973c-2.211,0-4.039-1.788-4.039-3.999s1.75-4,3.953-4h0.086c2.203,0,4,1.789,4,4
		S450.854,423.973,448.651,423.973z"/>
	<path style="fill:#3A3847;" d="M136.666,399.975c-2.207,0-4.039-1.789-4.039-4s1.75-3.999,3.961-3.999h0.078
		c2.211,0,4,1.788,4,3.999S138.877,399.975,136.666,399.975z"/>
	<path style="fill:#3A3847;" d="M184.663,399.975c-2.207,0-4.039-1.789-4.039-4s1.75-3.999,3.961-3.999h0.078
		c2.211,0,4,1.788,4,3.999S186.874,399.975,184.663,399.975z"/>
	<path style="fill:#3A3847;" d="M328.658,399.975c-2.211,0-4.038-1.789-4.038-4s1.75-3.999,3.952-3.999h0.086
		c2.203,0,4,1.788,4,3.999S330.861,399.975,328.658,399.975z"/>
	<path style="fill:#3A3847;" d="M376.656,399.975c-2.211,0-4.04-1.789-4.04-4s1.75-3.999,3.954-3.999h0.086
		c2.202,0,3.999,1.788,3.999,3.999S378.858,399.975,376.656,399.975z"/>
</g>
<path style="fill:#EAC6BB;" d="M282.34,99.994c0,0,46.091,35.553,113.196,62.629v17.366c0,53.035-29.123,103.752-63.996,136.952
	c-25.28,24.076-53.599,39.036-75.995,39.036c-22.397,0-50.716-14.882-75.996-39.036c-31.356-29.842-58.074-73.839-63.12-120.953
	v-15.905C181.394,163.42,239.625,129.968,282.34,99.994z"/>
<g style="opacity:0.2;">
	<path d="M379.538,155.513v24.476c0,53.035-29.123,103.752-63.996,136.952c-22.366,21.304-47.099,35.42-68.016,38.404
		c2.738,0.391,5.426,0.632,8.02,0.632c22.396,0,50.715-14.96,75.995-39.036c34.873-33.2,63.996-83.917,63.996-136.952v-17.366
		L379.538,155.513z"/>
</g>
<g style="opacity:0.5;">
	<path style="fill:#FFFFFF;" d="M195.549,316.941c-31.358-29.842-58.075-73.839-63.121-120.953v-20.304l-15.999,4.398v15.905
		c5.046,47.114,31.764,91.111,63.12,120.953c25.28,24.154,53.599,39.036,75.996,39.036c2.578,0,5.258-0.25,7.98-0.632
		C242.617,352.361,217.903,338.299,195.549,316.941z"/>
</g>
<g>
	<path style="fill:#3A3847;" d="M255.983,359.977c-34.615,0-80.198-32.279-110.845-78.503
		c-18.038-27.014-29.189-56.426-32.244-85.064c-0.234-2.195,1.354-4.164,3.55-4.398c2.238-0.211,4.172,1.359,4.402,3.555
		c2.918,27.35,13.62,55.527,30.951,81.479c28.796,43.418,72.61,74.932,104.186,74.932c30.795,0,72.668-29.357,101.822-71.395
		c15.585-22.498,34.17-58.215,34.17-100.595c0-2.211,1.788-4,3.999-4c2.212,0,4,1.789,4,4c0,44.45-19.358,81.722-35.592,105.157
		C333.814,329.206,289.239,359.977,255.983,359.977z"/>
	<path style="fill:#3A3847;" d="M467.97,511.968H43.996c-2.211,0-4-1.789-4-4V459.97c0-34.271,17.78-47.435,50.591-59.738
		c5.184-1.929,11.417-3.905,18.187-6.046c5.105-1.625,10.519-3.335,16.011-5.202c14.401-4.961,32.502-11.938,44.587-21.858
		c1.719-1.406,4.23-1.148,5.633,0.555c1.398,1.71,1.152,4.226-0.555,5.632c-13.073,10.727-32.025,18.054-47.075,23.241
		c-5.563,1.891-11.03,3.625-16.187,5.257c-6.628,2.102-12.738,4.031-17.8,5.914c-30.752,11.531-45.392,22.296-45.392,52.246v43.998
		h415.975v-43.998c0-29.95-14.64-40.715-45.404-52.254c-5.085-1.914-11.201-3.866-17.857-5.984
		c-10.249-3.272-21.874-6.983-32.982-11.585c-12.897-5.304-22.811-10.866-30.287-16.998c-1.703-1.398-1.953-3.922-0.555-5.634
		c1.406-1.71,3.921-1.944,5.632-0.555c6.852,5.625,16.094,10.79,28.265,15.789c10.804,4.484,22.256,8.14,32.357,11.358
		c6.796,2.172,13.046,4.163,18.248,6.124c32.804,12.304,50.584,25.468,50.584,59.738v47.998
		C471.97,510.179,470.181,511.968,467.97,511.968z"/>
	<path style="fill:#3A3847;" d="M411.973,163.99c-2.211,0-4-1.789-4-4c0-45.153-19.889-87.683-54.559-116.681
		C326.143,20.538,291.544,8,255.983,8c-83.808,0-151.991,68.183-151.991,151.99c0,2.211-1.788,4-3.999,4s-4-1.789-4-4
		C95.993,71.769,167.765,0,255.983,0c37.428,0,73.848,13.202,102.557,37.17c36.497,30.529,57.434,75.292,57.434,122.82
		C415.973,162.201,414.184,163.99,411.973,163.99z"/>
	<path style="fill:#3A3847;" d="M99.989,187.988c-1.86,0-3.523-1.305-3.914-3.195c-0.445-2.163,0.945-4.272,3.109-4.718
		c73.183-15.093,138.983-53.661,181.297-83.354c44.553-31.279,72.387-59.027,72.668-59.309c1.562-1.563,4.094-1.563,5.656,0
		c1.562,1.555,1.562,4.085,0,5.655c-0.274,0.281-28.608,28.522-73.73,60.199c-42.931,30.132-109.751,69.271-184.273,84.636
		C100.528,187.964,100.254,187.988,99.989,187.988z"/>
	<path style="fill:#3A3847;" d="M411.817,172.708c-0.453,0-0.922-0.078-1.366-0.242c-74.91-27.326-129.563-68.879-130.11-69.3
		c-1.75-1.344-2.078-3.852-0.734-5.602c1.336-1.766,3.875-2.102,5.602-0.742c0.539,0.406,54.278,41.239,127.977,68.129
		c2.078,0.758,3.148,3.055,2.391,5.125C414.981,171.7,413.45,172.708,411.817,172.708z"/>
	<path style="fill:#3A3847;" d="M99.993,187.988c-2.211,0-4-1.789-4-3.999V159.99c0-2.211,1.789-4,4-4s3.999,1.789,3.999,4v23.999
		C103.992,186.199,102.204,187.988,99.993,187.988z"/>
	<path style="fill:#3A3847;" d="M114.226,319.98c-2.02,0-3.75-1.524-3.973-3.57L96.016,184.418
		c-0.238-2.194,1.352-4.171,3.547-4.405c2.261-0.211,4.167,1.359,4.405,3.547l14.237,131.991c0.238,2.195-1.352,4.172-3.547,4.405
		C114.514,319.972,114.367,319.98,114.226,319.98z"/>
	<path style="fill:#3A3847;" d="M135.115,319.98c-0.258,0-0.516-0.024-0.776-0.078c-2.169-0.422-3.579-2.531-3.152-4.695
		l6.319-31.998c0.43-2.172,2.523-3.608,4.699-3.148c2.168,0.422,3.578,2.531,3.152,4.695l-6.32,31.998
		C138.658,318.66,136.986,319.98,135.115,319.98z"/>
	<path style="fill:#3A3847;" d="M115.992,332.456c-0.414,0-0.833-0.063-1.246-0.195l-24.022-8.015
		c-2.094-0.695-3.227-2.961-2.523-5.063c0.699-2.094,2.973-3.242,5.063-2.516l23.976,7.983c2.101,0.695,3.241,2.954,2.554,5.055
		C119.241,331.385,117.674,332.456,115.992,332.456z"/>
	<path style="fill:#3A3847;" d="M91.993,356.455c-2.211,0-3.999-1.789-3.999-4v-31.999c0-2.21,1.788-3.999,3.999-3.999
		s4,1.789,4,3.999v31.999C95.993,354.666,94.204,356.455,91.993,356.455z"/>
	<path style="fill:#3A3847;" d="M91.993,356.455c-1.676,0-3.234-1.063-3.793-2.734c-0.699-2.095,0.434-4.359,2.527-5.063
		l23.999-7.999c2.117-0.696,4.358,0.444,5.058,2.531c0.7,2.093-0.434,4.358-2.527,5.062l-23.998,7.999
		C92.837,356.391,92.411,356.455,91.993,356.455z"/>
	<path style="fill:#3A3847;" d="M155.989,356.455c-0.422,0-0.848-0.063-1.27-0.204l-23.971-7.991
		c-2.102-0.688-3.246-2.945-2.559-5.047c0.684-2.102,2.953-3.242,5.043-2.562l24.025,8.007c2.094,0.703,3.227,2.968,2.523,5.063
		C159.223,355.4,157.661,356.455,155.989,356.455z"/>
	<path style="fill:#3A3847;" d="M155.989,356.455c-2.211,0-4-1.789-4-4v-31.999c0-2.21,1.789-3.999,4-3.999s4,1.789,4,3.999v31.999
		C159.989,354.666,158.2,356.455,155.989,356.455z"/>
	<path style="fill:#3A3847;" d="M131.99,332.456c-1.679,0-3.246-1.07-3.8-2.75c-0.688-2.101,0.453-4.359,2.551-5.046l23.979-7.992
		c2.105-0.727,4.355,0.422,5.063,2.516c0.703,2.093-0.426,4.367-2.523,5.063l-24.019,8.007
		C132.827,332.393,132.404,332.456,131.99,332.456z"/>
	<path style="fill:#3A3847;" d="M123.991,348.455c-3.164,0-6.082-1.18-8.437-3.422c-2.379-2.492-3.563-5.413-3.563-8.577
		c0-6.617,5.382-12,11.999-12c6.617,0,11.999,5.383,11.999,12C135.99,343.072,130.608,348.455,123.991,348.455z M123.991,332.456
		c-2.207,0-4,1.797-4,4c0,1.102,0.398,2.063,1.219,2.921c0.719,0.68,1.676,1.079,2.781,1.079c2.207,0,4-1.797,4-4
		S126.198,332.456,123.991,332.456z"/>
	<path style="fill:#3A3847;" d="M123.991,383.976c-1.676,0-3.234-1.063-3.793-2.734l-7.999-23.998
		c-0.699-2.094,0.434-4.359,2.527-5.063c2.117-0.695,4.358,0.444,5.058,2.53l8,23.999c0.699,2.094-0.434,4.359-2.527,5.063
		C124.835,383.914,124.409,383.976,123.991,383.976z"/>
	<path style="fill:#3A3847;" d="M123.991,383.976c-0.418,0-0.844-0.063-1.266-0.203c-2.094-0.703-3.227-2.969-2.527-5.063l8-23.999
		c0.699-2.086,2.949-3.226,5.058-2.53c2.094,0.703,3.227,2.969,2.528,5.063l-8,23.998
		C127.225,382.914,125.667,383.976,123.991,383.976z"/>
	<path style="fill:#3A3847;" d="M397.74,319.98c-0.148,0-0.289-0.008-0.438-0.024c-2.195-0.233-3.781-2.21-3.546-4.405
		l14.24-131.991c0.234-2.195,2.227-3.789,4.406-3.547c2.195,0.234,3.781,2.211,3.547,4.405L401.708,316.41
		C401.49,318.456,399.755,319.98,397.74,319.98z"/>
	<path style="fill:#3A3847;" d="M376.85,319.98c-1.875,0-3.546-1.328-3.921-3.234l-6.242-31.998
		c-0.421-2.172,0.992-4.266,3.163-4.695c2.118-0.391,4.266,0.992,4.695,3.164l6.242,31.998c0.422,2.171-0.992,4.266-3.164,4.695
		C377.366,319.956,377.108,319.98,376.85,319.98z"/>
	<path style="fill:#3A3847;" d="M395.974,332.456c-1.679,0-3.249-1.07-3.804-2.75c-0.688-2.101,0.461-4.359,2.555-5.055
		l23.975-7.983c2.094-0.727,4.366,0.422,5.062,2.516c0.704,2.102-0.421,4.367-2.515,5.063l-24.022,8.015
		C396.81,332.393,396.388,332.456,395.974,332.456z"/>
	<path style="fill:#3A3847;" d="M419.973,356.455c-2.211,0-4-1.789-4-4v-31.999c0-2.21,1.789-3.999,4-3.999s3.999,1.789,3.999,3.999
		v31.999C423.972,354.666,422.184,356.455,419.973,356.455z"/>
	<path style="fill:#3A3847;" d="M419.973,356.455c-0.422,0-0.844-0.063-1.267-0.204l-23.975-7.991
		c-2.101-0.688-3.25-2.953-2.562-5.047c0.695-2.109,2.952-3.227,5.046-2.562l24.021,8.007c2.103,0.703,3.228,2.968,2.532,5.063
		C423.207,355.4,421.645,356.455,419.973,356.455z"/>
	<path style="fill:#3A3847;" d="M355.976,356.455c-1.671,0-3.233-1.063-3.796-2.734c-0.695-2.095,0.438-4.359,2.53-5.063l24-7.999
		c2.093-0.703,4.358,0.437,5.062,2.531c0.695,2.093-0.438,4.358-2.531,5.062l-23.998,7.999
		C356.821,356.391,356.399,356.455,355.976,356.455z"/>
	<path style="fill:#3A3847;" d="M355.976,356.455c-2.21,0-3.999-1.789-3.999-4v-31.999c0-2.21,1.789-3.999,3.999-3.999
		c2.211,0,4,1.789,4,3.999v31.999C359.976,354.666,358.187,356.455,355.976,356.455z"/>
	<path style="fill:#3A3847;" d="M379.975,332.456c-0.414,0-0.835-0.063-1.25-0.203l-24.021-8.007
		c-2.094-0.695-3.219-2.97-2.516-5.063c0.695-2.094,2.977-3.242,5.063-2.516l23.975,7.992c2.094,0.687,3.242,2.945,2.547,5.046
		C383.225,331.385,381.655,332.456,379.975,332.456z"/>
	<path style="fill:#3A3847;" d="M387.975,348.455c-3.156,0-6.078-1.18-8.43-3.422c-2.39-2.5-3.57-5.422-3.57-8.577
		c0-6.617,5.383-12,12-12c6.616,0,11.999,5.383,11.999,12C399.974,343.072,394.591,348.455,387.975,348.455z M387.975,332.456
		c-2.203,0-4,1.797-4,4c0,1.102,0.398,2.063,1.219,2.93c0.719,0.671,1.68,1.07,2.781,1.07c2.202,0,4-1.797,4-4
		S390.177,332.456,387.975,332.456z"/>
	<path style="fill:#3A3847;" d="M387.975,383.976c-0.422,0-0.844-0.063-1.266-0.203c-2.094-0.703-3.227-2.969-2.531-5.063
		l7.999-23.999c0.711-2.093,2.977-3.21,5.063-2.53c2.094,0.703,3.227,2.969,2.531,5.063l-8,23.998
		C391.209,382.914,389.646,383.976,387.975,383.976z"/>
	<path style="fill:#3A3847;" d="M387.975,383.976c-1.672,0-3.234-1.063-3.797-2.734l-7.999-23.998
		c-0.696-2.094,0.437-4.359,2.531-5.063c2.093-0.688,4.358,0.438,5.062,2.53l7.999,23.999c0.695,2.094-0.437,4.359-2.53,5.063
		C388.819,383.914,388.396,383.976,387.975,383.976z"/>
	<path style="fill:#3A3847;" d="M411.973,187.988c-2.211,0-4-1.789-4-3.999V159.99c0-2.211,1.789-4,4-4s4,1.789,4,4v23.999
		C415.973,186.199,414.184,187.988,411.973,187.988z"/>
	<path style="fill:#3A3847;" d="M307.98,367.977c-2.211,0-4-1.789-4-4s1.789-4,4-4c11.085,0,18.271-2.522,21.342-7.491
		c4.539-7.344-0.866-18.608-0.921-18.718c-0.985-1.977-0.188-4.375,1.788-5.367c1.984-0.992,4.375-0.188,5.367,1.789
		c0.313,0.617,7.499,15.288,0.57,26.498C331.502,364.18,322.026,367.977,307.98,367.977z"/>
	<path style="fill:#3A3847;" d="M203.986,367.977c-14.05,0-23.518-3.797-28.146-11.289c-6.93-11.21,0.262-25.881,0.569-26.498
		c0.989-1.969,3.38-2.758,5.355-1.789c1.977,0.984,2.781,3.383,1.805,5.359c-0.055,0.109-5.511,11.351-0.914,18.74
		c3.082,4.961,10.258,7.477,21.331,7.477c2.211,0,4,1.789,4,4S206.197,367.977,203.986,367.977z"/>
	<path style="fill:#3A3847;" d="M255.983,391.976c-46.349,0-55.427-25.64-55.79-26.733c-0.699-2.094,0.434-4.359,2.527-5.062
		c2.094-0.695,4.336,0.429,5.051,2.499c0.332,0.93,8.081,21.296,48.212,21.296c40.192,0,47.903-20.429,48.216-21.296
		c0.727-2.07,2.969-3.203,5.077-2.469c2.07,0.72,3.195,2.945,2.5,5.031C311.41,366.337,302.332,391.976,255.983,391.976z"/>
</g>
<g>
</g>
<g>
</g>
<g>
</g>
<g>
</g>
<g>
</g>
<g>
</g>
<g>
</g>
<g>
</g>
<g>
</g>
<g>
</g>
<g>
</g>
<g>
</g>
<g>
</g>
<g>
</g>
<g>
</g>
</svg>
