<?xml version="1.0" encoding="iso-8859-1"?>
<!-- Generator: Adobe Illustrator 19.0.0, SVG Export Plug-In . SVG Version: 6.00 Build 0)  -->
<svg version="1.1" id="Capa_1" xmlns="http://www.w3.org/2000/svg" xmlns:xlink="http://www.w3.org/1999/xlink" x="0px" y="0px"
	 viewBox="0 0 512 512" style="enable-background:new 0 0 512 512;" xml:space="preserve">
<g>
	<g>
		<g>
			<path d="M216,400c-30.928,0-56,25.072-56,56c0,30.928,25.072,56,56,56c30.928,0,56-25.072,56-56C272,425.072,246.928,400,216,400
				z M216,480c-13.255,0-24-10.745-24-24s10.745-24,24-24s24,10.745,24,24S229.255,480,216,480z"/>
			<path d="M408,400c-30.928,0-56,25.072-56,56c0,30.928,25.072,56,56,56c30.928,0,56-25.072,56-56C464,425.072,438.928,400,408,400
				z M408,480c-13.255,0-24-10.745-24-24s10.745-24,24-24s24,10.745,24,24S421.255,480,408,480z"/>
			<polygon points="384,336 156.336,336 76.336,32 0,32 0,64 51.664,64 131.664,368 384,368 			"/>
			<rect x="480" y="336" width="32" height="32"/>
			<rect x="416" y="336" width="32" height="32"/>
			<polygon points="480,112 480,272 205.616,272 162.512,107.936 131.568,116.064 180.944,304 512,304 512,112 			"/>
			<rect x="320" width="32" height="32"/>
			<polygon points="411.312,155.312 388.688,132.688 352,169.376 352,64 320,64 320,169.376 283.312,132.688 260.688,155.312 
				336,230.624 			"/>
		</g>
	</g>
</g>
<g>
</g>
<g>
</g>
<g>
</g>
<g>
</g>
<g>
</g>
<g>
</g>
<g>
</g>
<g>
</g>
<g>
</g>
<g>
</g>
<g>
</g>
<g>
</g>
<g>
</g>
<g>
</g>
<g>
</g>
</svg>
