<?xml version="1.0" encoding="iso-8859-1"?>
<!-- Generator: Adobe Illustrator 18.0.0, SVG Export Plug-In . SVG Version: 6.00 Build 0)  -->
<!DOCTYPE svg PUBLIC "-//W3C//DTD SVG 1.1//EN" "http://www.w3.org/Graphics/SVG/1.1/DTD/svg11.dtd">
<svg version="1.1" id="Capa_1" xmlns="http://www.w3.org/2000/svg" xmlns:xlink="http://www.w3.org/1999/xlink" x="0px" y="0px"
	 viewBox="0 0 58 58" style="enable-background:new 0 0 58 58;" xml:space="preserve">
<g>
	<rect x="6" y="14" style="fill:#556080;" width="46" height="44"/>
	<rect x="7" y="0" style="fill:#48536D;" width="44" height="14"/>
	<polyline style="fill:#6D7CA0;" points="15,6 9,0 7,0 7,14 9,14 15,6 	"/>
	<polygon style="fill:#3D465B;" points="15,6 15,14 9,14 	"/>
	<circle style="fill:#3D465B;" cx="21" cy="21" r="3"/>
	<circle style="fill:#3D465B;" cx="37" cy="21" r="3"/>
	<polyline style="fill:#6D7CA0;" points="43,6 49,0 51,0 51,14 49,14 43,6 	"/>
	<polygon style="fill:#3D465B;" points="43,6 43,14 49,14 	"/>
	<path style="fill:#8697CB;" d="M29,36c-4.962,0-9-4.037-9-9v-6c0-0.553,0.448-1,1-1s1,0.447,1,1v6c0,3.859,3.14,7,7,7s7-3.141,7-7
		v-6c0-0.553,0.448-1,1-1s1,0.447,1,1v6C38,31.963,33.962,36,29,36z"/>
</g>
<g>
</g>
<g>
</g>
<g>
</g>
<g>
</g>
<g>
</g>
<g>
</g>
<g>
</g>
<g>
</g>
<g>
</g>
<g>
</g>
<g>
</g>
<g>
</g>
<g>
</g>
<g>
</g>
<g>
</g>
</svg>
